<svg width="158" height="24" viewBox="0 0 158 24" fill="none" xmlns="http://www.w3.org/2000/svg">
<path d="M27.6524 0.183592V9.30359H20.4224C20.4224 9.30359 20.4124 9.31359 20.3924 9.33359C20.3924 9.33359 20.3824 9.33359 20.3624 9.33359C20.3624 9.33359 20.3624 9.34359 20.3624 9.36359C20.3624 10.2436 20.3624 11.1336 20.3624 12.0336C20.3624 12.9136 20.3624 13.8036 20.3624 14.7036C20.3624 15.5836 20.3624 16.4736 20.3624 17.3736C20.3624 18.2536 20.3624 19.1436 20.3624 20.0436C20.3624 20.9236 20.3624 21.8036 20.3624 22.6836H7.91242C7.91242 21.2036 7.91242 19.7236 7.91242 18.2436C7.91242 16.7636 7.91242 15.2836 7.91242 13.8036C7.91242 12.3236 7.91242 10.8436 7.91242 9.36359C7.91242 9.34359 7.90242 9.33359 7.88242 9.33359C7.88242 9.31359 7.87242 9.30359 7.85242 9.30359H0.622422V0.183592H27.6524ZM28.6352 0.183592H41.0852C41.0852 2.36359 41.0852 4.40359 41.0852 6.30359C41.0852 8.20359 41.0852 10.1036 41.0852 12.0036C41.0852 12.3036 41.1452 12.5636 41.2652 12.7836C41.4052 13.0036 41.5752 13.1936 41.7752 13.3536C41.9952 13.4936 42.2352 13.6036 42.4952 13.6836C42.7752 13.7636 43.0552 13.8036 43.3352 13.8036C43.9152 13.8036 44.4352 13.6536 44.8952 13.3536C45.3552 13.0536 45.5852 12.6136 45.5852 12.0336C45.5852 11.0736 45.5852 10.1236 45.5852 9.18359C45.5852 8.24359 45.5852 7.29359 45.5852 6.33359C45.5852 5.37359 45.5852 4.38359 45.5852 3.36359C45.5852 2.34359 45.5852 1.28359 45.5852 0.183592H58.0352C58.0352 1.70359 58.0352 3.26359 58.0352 4.86359C58.0352 6.46359 58.0352 8.07359 58.0352 9.69359C58.0352 11.2936 58.0352 12.8536 58.0352 14.3736C58.0352 15.9136 57.6152 17.2636 56.7752 18.4236C55.9552 19.5636 54.8452 20.5236 53.4452 21.3036C52.0452 22.0636 50.4652 22.6336 48.7052 23.0136C46.9652 23.3936 45.1752 23.5836 43.3352 23.5836C41.8752 23.5836 40.4252 23.4636 38.9852 23.2236C37.5652 22.9836 36.2252 22.6136 34.9652 22.1136C33.7252 21.6136 32.6252 21.0036 31.6652 20.2836C30.7252 19.5436 29.9852 18.6836 29.4452 17.7036C28.9052 16.7036 28.6352 15.5936 28.6352 14.3736C28.6352 13.6136 28.6352 12.8336 28.6352 12.0336C28.6352 11.2136 28.6352 10.4036 28.6352 9.60359C28.6352 8.54359 28.6352 7.48359 28.6352 6.42359C28.6352 5.36359 28.6352 4.31359 28.6352 3.27359C28.6352 2.21359 28.6352 1.18359 28.6352 0.183592ZM95.3711 0.183592C95.3711 1.68359 95.3711 3.18359 95.3711 4.68359C95.3711 6.18359 95.3711 7.68359 95.3711 9.18359C95.3711 10.6836 95.3711 12.1836 95.3711 13.6836C95.3711 15.1836 95.3711 16.6836 95.3711 18.1836C95.3711 19.6836 95.3711 21.1836 95.3711 22.6836H83.8211C83.8211 20.6036 83.8211 18.5236 83.8211 16.4436C83.8211 14.3636 83.8211 12.2836 83.8211 10.2036C83.8211 10.1836 83.8111 10.1736 83.7911 10.1736C83.7911 10.1736 83.7811 10.1736 83.7611 10.1736C83.7611 10.1736 83.7611 10.1836 83.7611 10.2036L80.8211 22.6836H73.1711C72.6711 20.6036 72.1811 18.5336 71.7011 16.4736C71.2211 14.4136 70.7311 12.3536 70.2311 10.2936C70.2311 10.2736 70.2211 10.2636 70.2011 10.2636C70.2011 10.2636 70.1911 10.2636 70.1711 10.2636C70.1711 10.2636 70.1711 10.2736 70.1711 10.2936C70.1711 12.3536 70.1711 14.4136 70.1711 16.4736C70.1711 18.5336 70.1711 20.6036 70.1711 22.6836H59.2211C59.2211 21.1836 59.2211 19.6836 59.2211 18.1836C59.2211 16.6636 59.2211 15.1536 59.2211 13.6536C59.2211 12.1336 59.2211 10.6236 59.2211 9.12359C59.2211 7.60359 59.2211 6.09359 59.2211 4.59359C59.2211 3.85359 59.2211 3.12359 59.2211 2.40359C59.2211 1.66359 59.2211 0.923592 59.2211 0.183592H75.2111C75.5111 1.42359 75.8011 2.66359 76.0811 3.90359C76.3611 5.12359 76.6411 6.35359 76.9211 7.59359C77.2211 8.83359 77.5111 10.0736 77.7911 11.3136C77.7911 11.3336 77.7911 11.3536 77.7911 11.3736C77.8111 11.3736 77.8211 11.3736 77.8211 11.3736C77.8411 11.3536 77.8511 11.3336 77.8511 11.3136L80.2511 0.183592H95.3711ZM96.5746 0.183592H120.185C121.525 0.183592 122.635 0.443592 123.515 0.963593C124.395 1.46359 125.055 2.11359 125.495 2.91359C125.955 3.71359 126.185 4.55359 126.185 5.43359C126.185 6.31359 125.955 7.17359 125.495 8.01359C125.035 8.83359 124.335 9.50359 123.395 10.0236C122.475 10.5436 121.315 10.8036 119.915 10.8036C119.915 10.8036 119.905 10.8036 119.885 10.8036C119.885 10.8036 119.885 10.8136 119.885 10.8336C119.905 10.8336 119.915 10.8336 119.915 10.8336C121.535 10.8336 122.875 11.1236 123.935 11.7036C124.995 12.2836 125.785 13.0236 126.305 13.9236C126.825 14.8236 127.085 15.7736 127.085 16.7736C127.085 17.5136 126.935 18.2336 126.635 18.9336C126.355 19.6336 125.925 20.2736 125.345 20.8536C124.765 21.4136 124.045 21.8636 123.185 22.2036C122.325 22.5236 121.325 22.6836 120.185 22.6836H96.5746C96.5746 21.3236 96.5746 19.9736 96.5746 18.6336C96.5746 17.2736 96.5746 15.9136 96.5746 14.5536C96.5746 13.1936 96.5746 11.8436 96.5746 10.5036C96.5746 9.14359 96.5746 7.78359 96.5746 6.42359C96.5746 5.38359 96.5746 4.34359 96.5746 3.30359C96.5746 2.26359 96.5746 1.22359 96.5746 0.183592ZM108.395 12.0036C108.395 12.2236 108.395 12.4436 108.395 12.6636C108.395 12.8836 108.395 13.1036 108.395 13.3236C108.395 13.4836 108.395 13.6436 108.395 13.8036C108.395 13.9436 108.395 14.0836 108.395 14.2236C108.395 14.3636 108.395 14.5036 108.395 14.6436C108.395 14.6636 108.395 14.6736 108.395 14.6736C108.395 14.6736 108.405 14.6736 108.425 14.6736H112.685C113.225 14.6736 113.625 14.5336 113.885 14.2536C114.165 13.9736 114.305 13.6536 114.305 13.2936C114.305 13.1136 114.275 12.9536 114.215 12.8136C114.155 12.6536 114.065 12.5136 113.945 12.3936C113.845 12.2536 113.705 12.1536 113.525 12.0936C113.365 12.0136 113.175 11.9736 112.955 11.9736H108.425C108.425 11.9736 108.415 11.9836 108.395 12.0036ZM108.425 7.77359C108.405 7.77359 108.395 7.78359 108.395 7.80359C108.395 7.92359 108.395 8.06359 108.395 8.22359C108.395 8.36359 108.395 8.51359 108.395 8.67359C108.395 8.81359 108.395 8.96359 108.395 9.12359C108.395 9.34359 108.395 9.57359 108.395 9.81359C108.395 10.0336 108.395 10.2436 108.395 10.4436C108.395 10.4636 108.395 10.4736 108.395 10.4736C108.395 10.4736 108.405 10.4736 108.425 10.4736H112.535C112.895 10.4736 113.195 10.4136 113.435 10.2936C113.675 10.1536 113.855 9.98359 113.975 9.78359C114.095 9.56359 114.155 9.33359 114.155 9.09359C114.155 8.75359 114.035 8.45359 113.795 8.19359C113.575 7.91359 113.245 7.77359 112.805 7.77359H108.425ZM151.287 0.183592C151.647 1.42359 151.997 2.67359 152.337 3.93359C152.697 5.17359 153.047 6.42359 153.387 7.68359C153.747 8.92359 154.107 10.1736 154.467 11.4336C154.827 12.6736 155.177 13.9236 155.517 15.1836C155.877 16.4236 156.227 17.6736 156.567 18.9336C156.927 20.1736 157.287 21.4236 157.647 22.6836H144.267L143.757 19.7436C143.677 19.7436 143.607 19.7436 143.547 19.7436C143.487 19.7436 143.417 19.7436 143.337 19.7436H140.037C139.977 19.7436 139.917 19.7436 139.857 19.7436C139.797 19.7436 139.737 19.7436 139.677 19.7436L139.167 22.6836H126.357C126.717 21.4236 127.067 20.1736 127.407 18.9336C127.767 17.6736 128.117 16.4236 128.457 15.1836C128.817 13.9236 129.167 12.6736 129.507 11.4336C129.867 10.1736 130.217 8.92359 130.557 7.68359C130.917 6.42359 131.267 5.17359 131.607 3.93359C131.967 2.67359 132.317 1.42359 132.657 0.183592H151.287ZM140.037 17.6136C140.037 17.6336 140.037 17.6436 140.037 17.6436C140.037 17.6436 140.047 17.6436 140.067 17.6436H143.367C143.387 17.6436 143.397 17.6436 143.397 17.6436C143.397 17.6236 143.397 17.6136 143.397 17.6136C143.397 17.6136 143.357 17.3736 143.277 16.8936C143.197 16.3936 143.087 15.7736 142.947 15.0336C142.827 14.2736 142.697 13.4736 142.557 12.6336C142.417 11.7736 142.287 10.9636 142.167 10.2036C142.047 9.44359 141.937 8.82359 141.837 8.34359C141.757 7.86359 141.717 7.62359 141.717 7.62359C141.717 7.62359 141.707 7.62359 141.687 7.62359C141.687 7.62359 141.647 7.86359 141.567 8.34359C141.487 8.82359 141.377 9.44359 141.237 10.2036C141.117 10.9636 140.987 11.7736 140.847 12.6336C140.707 13.4736 140.577 14.2736 140.457 15.0336C140.337 15.7736 140.237 16.3936 140.157 16.8936C140.077 17.3736 140.037 17.6136 140.037 17.6136Z" fill="#0B808A"/>
</svg>
