<svg width="18" height="19" viewBox="0 0 18 19" fill="none" xmlns="http://www.w3.org/2000/svg">
<path fill-rule="evenodd" clip-rule="evenodd" d="M13.4512 4.92969C13.7138 5.6141 13.8496 6.35001 13.8496 7.09473V7.11035L13.8506 7.12598C13.9367 9.87339 14.3376 11.5565 15.2119 13.7041H2.26855C3.1953 11.441 3.6012 9.74145 3.62988 7.10547V7.09473C3.62989 6.35002 3.76574 5.61409 4.02832 4.92969C4.29099 4.24522 4.67482 3.6278 5.15332 3.11133C5.6316 2.59511 6.19499 2.18985 6.80957 1.91504C7.42403 1.64032 8.08027 1.5 8.74023 1.5C9.40005 1.50006 10.0556 1.64038 10.6699 1.91504C11.2845 2.18984 11.8479 2.59511 12.3262 3.11133C12.8047 3.6278 13.1885 4.24522 13.4512 4.92969ZM16.7295 14.7041C15.4657 11.8825 14.9484 10.2464 14.8496 7.09473C14.8496 6.2288 14.6917 5.37131 14.3848 4.57129C14.0778 3.77129 13.6278 3.04396 13.0605 2.43164L13.0596 2.43066C12.4924 1.81868 11.819 1.33323 11.0781 1.00195C10.4294 0.711937 9.73983 0.544973 9.04004 0.507812L8.74023 0.5C7.93788 0.5 7.14265 0.670536 6.40137 1.00195C5.66025 1.33334 4.98718 1.81941 4.41992 2.43164C3.85257 3.04402 3.40177 3.77118 3.09473 4.57129L2.9873 4.87402C2.7514 5.58596 2.62989 6.33702 2.62988 7.09473C2.59756 10.0644 2.07663 11.7383 0.75 14.7041H5.57617C5.5763 15.1192 5.65854 15.5306 5.81738 15.9141C5.97633 16.2976 6.20936 16.6459 6.50293 16.9395C6.79667 17.2332 7.14551 17.467 7.5293 17.626C7.91289 17.7848 8.32408 17.8662 8.73926 17.8662C9.15466 17.8662 9.56641 17.7849 9.9502 17.626C10.334 17.467 10.6828 17.2332 10.9766 16.9395C11.27 16.6459 11.5032 16.2976 11.6621 15.9141C11.821 15.5306 11.9022 15.1192 11.9023 14.7041H16.7295ZM10.9023 14.7041H6.57617C6.5763 14.9879 6.63262 15.2691 6.74121 15.5312C6.84991 15.7935 7.00922 16.0317 7.20996 16.2324C7.41078 16.4332 7.64877 16.5934 7.91113 16.7021C8.17354 16.8108 8.45523 16.8662 8.73926 16.8662C9.02332 16.8662 9.30494 16.8108 9.56738 16.7021C9.82984 16.5934 10.0687 16.4333 10.2695 16.2324C10.4702 16.0317 10.6296 15.7935 10.7383 15.5312C10.8469 15.2691 10.9022 14.9879 10.9023 14.7041Z" fill="white"/>
</svg>
