<svg width="18" height="19" viewBox="0 0 18 19" fill="none" xmlns="http://www.w3.org/2000/svg">
<path d="M9 10.8994C9.98404 10.8994 10.9587 11.0961 11.8682 11.4775C12.7774 11.8589 13.6042 12.4178 14.3008 13.123C14.9975 13.8285 15.5513 14.6673 15.9287 15.5898C16.2429 16.358 16.4286 17.1724 16.4824 18H1.51758C1.57143 17.1724 1.75712 16.358 2.07129 15.5898C2.4487 14.6673 3.00248 13.8285 3.69922 13.123C4.39583 12.4178 5.22257 11.8589 6.13184 11.4775C7.04132 11.0961 8.01596 10.8994 9 10.8994ZM9 1C11.1725 1 12.9442 2.78494 12.9443 5C12.9443 7.21516 11.1726 9 9 9C6.8274 9 5.05566 7.21516 5.05566 5C5.05578 2.78494 6.82748 1 9 1Z" stroke="white"/>
</svg>
