<svg width="24" height="24" viewBox="0 0 24 24" fill="none" xmlns="http://www.w3.org/2000/svg">
<g clip-path="url(#clip0_1196_47761)">
<path d="M18.3824 9.42857V9.4364L18.3826 9.44423C18.4879 12.8041 19.0135 14.6885 20.2328 17.5H3.76702C5.05218 14.5387 5.58289 12.625 5.61762 9.43401L5.61765 9.43401V9.42857C5.61765 8.51362 5.78465 7.60841 6.10834 6.76492C6.43202 5.92147 6.90556 5.15744 7.50022 4.51559C8.09481 3.87381 8.7986 3.36695 9.57031 3.02192C10.3419 2.67695 11.1674 2.5 12 2.5C12.8326 2.5 13.6581 2.67695 14.4297 3.02192C15.2014 3.36695 15.9052 3.87381 16.4998 4.51559C17.0944 5.15744 17.568 5.92147 17.8917 6.76492C18.2154 7.60841 18.3824 8.51362 18.3824 9.42857Z" stroke="#333333"/>
<path d="M15 18C15 18.394 14.9224 18.7841 14.7716 19.1481C14.6209 19.512 14.3999 19.8427 14.1213 20.1213C13.8427 20.3999 13.512 20.6209 13.1481 20.7716C12.7841 20.9224 12.394 21 12 21C11.606 21 11.2159 20.9224 10.8519 20.7716C10.488 20.6209 10.1573 20.3999 9.87868 20.1213C9.6001 19.8427 9.37913 19.512 9.22836 19.1481C9.0776 18.7841 9 18.394 9 18" stroke="#333333"/>
</g>
<defs>
<clipPath id="clip0_1196_47761">
<rect width="18" height="20" fill="white" transform="translate(3 2)"/>
</clipPath>
</defs>
</svg>
