<svg width="14" height="15" viewBox="0 0 14 15" fill="none" xmlns="http://www.w3.org/2000/svg">
<g clip-path="url(#clip0_2603_59141)">
<path fill-rule="evenodd" clip-rule="evenodd" d="M8.93648 6.08583C8.93648 8.02911 7.36115 9.60445 5.41787 9.60445C3.47459 9.60445 1.89925 8.02911 1.89925 6.08583C1.89925 4.14256 3.47459 2.56722 5.41787 2.56722C7.36115 2.56722 8.93648 4.14256 8.93648 6.08583ZM8.38239 10.0784C7.5546 10.6941 6.52878 11.0584 5.41787 11.0584C2.6716 11.0584 0.445312 8.8321 0.445312 6.08583C0.445312 3.33957 2.6716 1.11328 5.41787 1.11328C8.16413 1.11328 10.3904 3.33957 10.3904 6.08583C10.3904 7.19674 10.0261 8.22257 9.41048 9.05036L12.8228 12.4627L13.3369 12.9768L12.3088 14.0049L11.7948 13.4908L8.38239 10.0784Z" fill="#333333"/>
</g>
<defs>
<clipPath id="clip0_2603_59141">
<rect width="13.0854" height="13.5701" fill="white" transform="translate(0.293945 0.898438)"/>
</clipPath>
</defs>
</svg>
