<svg width="13" height="15" viewBox="0 0 13 15" fill="none" xmlns="http://www.w3.org/2000/svg">
<g clip-path="url(#clip0_2603_59147)">
<path fill-rule="evenodd" clip-rule="evenodd" d="M7.95289 4.42277C7.95289 5.51659 7.06617 6.40331 5.97234 6.40331C4.87852 6.40331 3.9918 5.51659 3.9918 4.42277C3.9918 3.32894 4.87852 2.44222 5.97234 2.44222C7.06617 2.44222 7.95289 3.32894 7.95289 4.42277ZM9.40683 4.42277C9.40683 6.31958 7.86916 7.85725 5.97234 7.85725C4.07553 7.85725 2.53786 6.31958 2.53786 4.42277C2.53786 2.52595 4.07553 0.988281 5.97234 0.988281C7.86916 0.988281 9.40683 2.52595 9.40683 4.42277ZM6.29504 9.03983C4.80511 9.03983 3.3627 9.57139 2.28811 10.5378C1.21097 11.5064 0.588867 12.8378 0.588867 14.2446H2.0428C2.0428 13.2762 2.46988 12.3297 3.26032 11.6188C4.05329 10.9057 5.14384 10.4938 6.29504 10.4938C7.44625 10.4938 8.5368 10.9057 9.32977 11.6188C10.1202 12.3297 10.5473 13.2762 10.5473 14.2446H12.0012C12.0012 12.8378 11.3791 11.5064 10.302 10.5378C9.22739 9.57139 7.78498 9.03983 6.29504 9.03983Z" fill="#333333"/>
</g>
<defs>
<clipPath id="clip0_2603_59147">
<rect width="11.6315" height="13.5701" fill="white" transform="translate(0.478516 0.898438)"/>
</clipPath>
</defs>
</svg>
