<svg width="247" height="38" viewBox="0 0 247 38" fill="none" xmlns="http://www.w3.org/2000/svg">
<g style="mix-blend-mode:hard-light">
<path d="M43.185 0.168587V14.6938H31.6699C31.6699 14.6938 31.654 14.7098 31.6221 14.7416C31.6221 14.7416 31.6062 14.7416 31.5743 14.7416C31.5743 14.7416 31.5743 14.7575 31.5743 14.7894C31.5743 16.191 31.5743 17.6084 31.5743 19.0419C31.5743 20.4434 31.5743 21.8609 31.5743 23.2943C31.5743 24.6959 31.5743 26.1134 31.5743 27.5468C31.5743 28.9483 31.5743 30.3658 31.5743 31.7992C31.5743 33.2008 31.5743 34.6023 31.5743 36.0039H11.7455C11.7455 33.6467 11.7455 31.2896 11.7455 28.9324C11.7455 26.5752 11.7455 24.2181 11.7455 21.8609C11.7455 19.5037 11.7455 17.1466 11.7455 14.7894C11.7455 14.7575 11.7295 14.7416 11.6977 14.7416C11.6977 14.7098 11.6818 14.6938 11.6499 14.6938H0.134817V0.168587H43.185ZM43.7946 0.168587H63.6234C63.6234 3.64063 63.6234 6.8897 63.6234 9.9158C63.6234 12.9419 63.6234 15.968 63.6234 18.9941C63.6234 19.4719 63.719 19.886 63.9101 20.2364C64.1331 20.5868 64.4038 20.8894 64.7224 21.1442C65.0728 21.3672 65.455 21.5424 65.8691 21.6698C66.3151 21.7972 66.761 21.8609 67.207 21.8609C68.1307 21.8609 68.9589 21.622 69.6915 21.1442C70.4242 20.6664 70.7905 19.9656 70.7905 19.0419C70.7905 17.5129 70.7905 15.9998 70.7905 14.5027C70.7905 13.0056 70.7905 11.4925 70.7905 9.96358C70.7905 8.4346 70.7905 6.85785 70.7905 5.23331C70.7905 3.60878 70.7905 1.92054 70.7905 0.168587H90.6194C90.6194 2.58946 90.6194 5.07404 90.6194 7.62233C90.6194 10.1706 90.6194 12.7348 90.6194 15.315C90.6194 17.8633 90.6194 20.3479 90.6194 22.7687C90.6194 25.2215 89.9504 27.3716 88.6126 29.2191C87.3066 31.0347 85.5387 32.5637 83.309 33.806C81.0792 35.0164 78.5628 35.9243 75.7597 36.5295C72.9884 37.1347 70.1375 37.4373 67.207 37.4373C64.8816 37.4373 62.5723 37.2462 60.2788 36.864C58.0172 36.4817 55.883 35.8924 53.8762 35.0961C51.9013 34.2997 50.1493 33.3282 48.6204 32.1815C47.1233 31.0029 45.9447 29.6332 45.0846 28.0724C44.2246 26.4797 43.7946 24.7118 43.7946 22.7687C43.7946 21.5583 43.7946 20.316 43.7946 19.0419C43.7946 17.7359 43.7946 16.4458 43.7946 15.1716C43.7946 13.4834 43.7946 11.7952 43.7946 10.1069C43.7946 8.41867 43.7946 6.74636 43.7946 5.08997C43.7946 3.40173 43.7946 1.76127 43.7946 0.168587ZM149.128 0.168587C149.128 2.55761 149.128 4.94663 149.128 7.33565C149.128 9.72467 149.128 12.1137 149.128 14.5027C149.128 16.8917 149.128 19.2808 149.128 21.6698C149.128 24.0588 149.128 26.4478 149.128 28.8368C149.128 31.2259 149.128 33.6149 149.128 36.0039H130.733C130.733 32.6911 130.733 29.3784 130.733 26.0656C130.733 22.7528 130.733 19.44 130.733 16.1273C130.733 16.0954 130.717 16.0795 130.685 16.0795C130.685 16.0795 130.669 16.0795 130.637 16.0795C130.637 16.0795 130.637 16.0954 130.637 16.1273L125.954 36.0039H113.77C112.974 32.6911 112.194 29.3943 111.429 26.1134C110.665 22.8324 109.884 19.5515 109.088 16.2706C109.088 16.2387 109.072 16.2228 109.04 16.2228C109.04 16.2228 109.024 16.2228 108.992 16.2228C108.992 16.2228 108.992 16.2387 108.992 16.2706C108.992 19.5515 108.992 22.8324 108.992 26.1134C108.992 29.3943 108.992 32.6911 108.992 36.0039H91.5526C91.5526 33.6149 91.5526 31.2259 91.5526 28.8368C91.5526 26.416 91.5526 24.011 91.5526 21.622C91.5526 19.2011 91.5526 16.7962 91.5526 14.4072C91.5526 11.9863 91.5526 9.58133 91.5526 7.19231C91.5526 6.01373 91.5526 4.85107 91.5526 3.70434C91.5526 2.52575 91.5526 1.34717 91.5526 0.168587H117.02C117.497 2.14351 117.959 4.11844 118.405 6.09336C118.851 8.03643 119.297 9.99543 119.743 11.9704C120.221 13.9453 120.683 15.9202 121.129 17.8951C121.129 17.927 121.129 17.9588 121.129 17.9907C121.161 17.9907 121.176 17.9907 121.176 17.9907C121.208 17.9588 121.224 17.927 121.224 17.8951L125.047 0.168587H149.128ZM150.089 0.168587H187.692C189.827 0.168587 191.594 0.582684 192.996 1.41088C194.398 2.20722 195.449 3.24246 196.15 4.51661C196.882 5.79075 197.248 7.1286 197.248 8.53016C197.248 9.93172 196.882 11.3014 196.15 12.6393C195.417 13.9453 194.302 15.0124 192.805 15.8406C191.34 16.6688 189.492 17.0829 187.262 17.0829C187.262 17.0829 187.246 17.0829 187.215 17.0829C187.215 17.0829 187.215 17.0988 187.215 17.1306C187.246 17.1306 187.262 17.1306 187.262 17.1306C189.843 17.1306 191.977 17.5925 193.665 18.5163C195.353 19.44 196.611 20.6186 197.44 22.052C198.268 23.4854 198.682 24.9985 198.682 26.5912C198.682 27.7697 198.443 28.9165 197.965 30.0314C197.519 31.1462 196.834 32.1655 195.911 33.0893C194.987 33.9812 193.84 34.6979 192.47 35.2394C191.101 35.7491 189.508 36.0039 187.692 36.0039H150.089C150.089 33.8379 150.089 31.6877 150.089 29.5535C150.089 27.3875 150.089 25.2215 150.089 23.0554C150.089 20.8894 150.089 18.7392 150.089 16.6051C150.089 14.439 150.089 12.273 150.089 10.1069C150.089 8.45053 150.089 6.79414 150.089 5.13775C150.089 3.48136 150.089 1.82498 150.089 0.168587ZM168.915 18.9941C168.915 19.3445 168.915 19.6949 168.915 20.0452C168.915 20.3956 168.915 20.746 168.915 21.0964C168.915 21.3512 168.915 21.6061 168.915 21.8609C168.915 22.0839 168.915 22.3069 168.915 22.5298C168.915 22.7528 168.915 22.9758 168.915 23.1988C168.915 23.2306 168.915 23.2465 168.915 23.2465C168.915 23.2465 168.931 23.2465 168.962 23.2465H175.747C176.607 23.2465 177.244 23.0236 177.659 22.5776C178.104 22.1317 178.327 21.622 178.327 21.0486C178.327 20.762 178.28 20.5071 178.184 20.2841C178.089 20.0293 177.945 19.8063 177.754 19.6152C177.595 19.3922 177.372 19.233 177.085 19.1374C176.83 19.01 176.528 18.9463 176.177 18.9463H168.962C168.962 18.9463 168.947 18.9622 168.915 18.9941ZM168.962 12.257C168.931 12.257 168.915 12.273 168.915 12.3048C168.915 12.4959 168.915 12.7189 168.915 12.9737C168.915 13.1967 168.915 13.4356 168.915 13.6904C168.915 13.9134 168.915 14.1523 168.915 14.4072C168.915 14.7575 168.915 15.1239 168.915 15.5061C168.915 15.8565 168.915 16.191 168.915 16.5095C168.915 16.5413 168.915 16.5573 168.915 16.5573C168.915 16.5573 168.931 16.5573 168.962 16.5573H175.508C176.082 16.5573 176.56 16.4617 176.942 16.2706C177.324 16.0476 177.611 15.7769 177.802 15.4583C177.993 15.1079 178.089 14.7416 178.089 14.3594C178.089 13.8179 177.897 13.3401 177.515 12.926C177.165 12.48 176.639 12.257 175.938 12.257H168.962ZM236.273 0.168587C236.846 2.14351 237.404 4.13436 237.945 6.14114C238.518 8.11607 239.076 10.1069 239.617 12.1137C240.191 14.0886 240.764 16.0795 241.337 18.0862C241.911 20.0612 242.468 22.052 243.01 24.0588C243.583 26.0337 244.141 28.0246 244.682 30.0314C245.255 32.0063 245.829 33.9971 246.402 36.0039H225.092L224.28 31.3214C224.152 31.3214 224.041 31.3214 223.945 31.3214C223.85 31.3214 223.738 31.3214 223.611 31.3214H218.355C218.26 31.3214 218.164 31.3214 218.068 31.3214C217.973 31.3214 217.877 31.3214 217.782 31.3214L216.969 36.0039H196.567C197.141 33.9971 197.698 32.0063 198.24 30.0314C198.813 28.0246 199.37 26.0337 199.912 24.0588C200.485 22.052 201.043 20.0612 201.584 18.0862C202.158 16.0795 202.715 14.0886 203.256 12.1137C203.83 10.1069 204.387 8.11607 204.929 6.14114C205.502 4.13436 206.06 2.14351 206.601 0.168587H236.273ZM218.355 27.929C218.355 27.9609 218.355 27.9768 218.355 27.9768C218.355 27.9768 218.371 27.9768 218.403 27.9768H223.659C223.691 27.9768 223.707 27.9768 223.707 27.9768C223.707 27.9449 223.707 27.929 223.707 27.929C223.707 27.929 223.643 27.5468 223.515 26.7823C223.388 25.9859 223.213 24.9985 222.99 23.8199C222.799 22.6095 222.592 21.3353 222.369 19.9975C222.146 18.6278 221.939 17.3377 221.748 16.1273C221.556 14.9168 221.381 13.9294 221.222 13.1649C221.095 12.4004 221.031 12.0181 221.031 12.0181C221.031 12.0181 221.015 12.0181 220.983 12.0181C220.983 12.0181 220.919 12.4004 220.792 13.1649C220.664 13.9294 220.489 14.9168 220.266 16.1273C220.075 17.3377 219.868 18.6278 219.645 19.9975C219.422 21.3353 219.215 22.6095 219.024 23.8199C218.833 24.9985 218.674 25.9859 218.546 26.7823C218.419 27.5468 218.355 27.929 218.355 27.929Z" fill="white"/>
</g>
</svg>
