<svg width="24" height="24" viewBox="0 0 24 24" fill="none" xmlns="http://www.w3.org/2000/svg">
<path fill-rule="evenodd" clip-rule="evenodd" d="M4 5.36523H5.00474H19.3251H20.3289L20.2412 6.36523L18.782 23.0005H5.71884L4.09747 6.36523L4 5.36523ZM6.62611 22.0005L5.1022 6.36523H19.2374L17.8659 22.0005H6.62611ZM7.96627 9.25068L8.74708 19.5511L9.74422 19.4755L8.96341 9.1751L7.96627 9.25068ZM15.6212 9.17639L14.8413 19.4769L15.8384 19.5524L16.6184 9.25189L15.6212 9.17639ZM11.75 9.25195L11.75 19.4781H12.75L12.75 9.25195H11.75Z" fill="#333333"/>
<path fill-rule="evenodd" clip-rule="evenodd" d="M8.67506 1H9.54825H14.8145H15.6877V1.29558V1.87319V2.16877H14.8145H9.54825H8.67506V1.87319V1.29558V1ZM4 4.18555H20.3628V3.31236H4V4.18555Z" fill="#333333"/>
</svg>
