<svg width="16" height="20" viewBox="0 0 16 20" fill="none" xmlns="http://www.w3.org/2000/svg">
<g id="Group 473">
<path id="Union" fill-rule="evenodd" clip-rule="evenodd" d="M0.628418 3.96875H1.63316H14.4689H15.4727L15.385 4.96875L14.0664 20.0006H2.19098L0.725884 4.96875L0.628418 3.96875ZM3.09825 19.0006L1.73062 4.96875H14.3812L13.1503 19.0006H3.09825ZM4.18848 7.50478L4.8983 16.8687L5.89543 16.7931L5.18562 7.42919L4.18848 7.50478ZM11.148 7.43029L10.4389 16.7943L11.4361 16.8698L12.1451 7.5058L11.148 7.43029ZM7.62812 7.50194L7.62812 16.7983H8.62812L8.62812 7.50194H7.62812Z" fill="#333333"/>
<path id="Union_2" fill-rule="evenodd" clip-rule="evenodd" d="M4.87848 0H5.75167H10.3803H11.2535V0.189316V0.87319V1.06251H10.3803H5.75167H4.87848V0.87319V0.189316V0ZM0.628418 2.93554H15.5035V2.06235H0.628418V2.93554Z" fill="#333333"/>
</g>
</svg>
