<svg width="81" height="80" viewBox="0 0 81 80" fill="none" xmlns="http://www.w3.org/2000/svg">
<g clip-path="url(#clip0_2740_3055)">
<path d="M28.3473 3.31641H25.8516V5.79472H28.3473V3.31641Z" fill="white"/>
<path d="M30.8355 3.31641H28.3398V5.79472H30.8355V3.31641Z" fill="white"/>
<path d="M38.3238 3.31641H35.8281V5.79472H38.3238V3.31641Z" fill="white"/>
<path d="M45.8121 3.31641H43.3164V5.79472H45.8121V3.31641Z" fill="white"/>
<path d="M48.3121 3.31641H45.8164V5.79472H48.3121V3.31641Z" fill="white"/>
<path d="M53.3004 3.31641H50.8047V5.79472H53.3004V3.31641Z" fill="white"/>
<path d="M55.8004 3.31641H53.3047V5.79472H55.8004V3.31641Z" fill="white"/>
<path d="M38.3238 5.79297H35.8281V8.27129H38.3238V5.79297Z" fill="white"/>
<path d="M40.8238 5.79297H38.3281V8.27129H40.8238V5.79297Z" fill="white"/>
<path d="M43.3199 5.79297H40.8242V8.27129H43.3199V5.79297Z" fill="white"/>
<path d="M48.3121 5.79297H45.8164V8.27129H48.3121V5.79297Z" fill="white"/>
<path d="M55.8004 5.79297H53.3047V8.27129H55.8004V5.79297Z" fill="white"/>
<path d="M33.3355 8.26953H30.8398V10.7478H33.3355V8.26953Z" fill="white"/>
<path d="M38.3238 8.26953H35.8281V10.7478H38.3238V8.26953Z" fill="white"/>
<path d="M45.8121 8.26953H43.3164V10.7478H45.8121V8.26953Z" fill="white"/>
<path d="M48.3121 8.26953H45.8164V10.7478H48.3121V8.26953Z" fill="white"/>
<path d="M53.3004 8.26953H50.8047V10.7478H53.3004V8.26953Z" fill="white"/>
<path d="M55.8004 8.26953H53.3047V10.7478H55.8004V8.26953Z" fill="white"/>
<path d="M33.3355 10.75H30.8398V13.2283H33.3355V10.75Z" fill="white"/>
<path d="M35.8355 10.75H33.3398V13.2283H35.8355V10.75Z" fill="white"/>
<path d="M38.3238 10.75H35.8281V13.2283H38.3238V10.75Z" fill="white"/>
<path d="M40.8238 10.75H38.3281V13.2283H40.8238V10.75Z" fill="white"/>
<path d="M43.3199 10.75H40.8242V13.2283H43.3199V10.75Z" fill="white"/>
<path d="M53.3004 10.75H50.8047V13.2283H53.3004V10.75Z" fill="white"/>
<path d="M55.8004 10.75H53.3047V13.2283H55.8004V10.75Z" fill="white"/>
<path d="M28.3473 13.2227H25.8516V15.701H28.3473V13.2227Z" fill="white"/>
<path d="M33.3355 13.2227H30.8398V15.701H33.3355V13.2227Z" fill="white"/>
<path d="M38.3238 13.2227H35.8281V15.701H38.3238V13.2227Z" fill="white"/>
<path d="M40.8238 13.2227H38.3281V15.701H40.8238V13.2227Z" fill="white"/>
<path d="M45.8121 13.2227H43.3164V15.701H45.8121V13.2227Z" fill="white"/>
<path d="M48.3121 13.2227H45.8164V15.701H48.3121V13.2227Z" fill="white"/>
<path d="M55.8004 13.2227H53.3047V15.701H55.8004V13.2227Z" fill="white"/>
<path d="M25.8473 15.6992H23.3516V18.1775H25.8473V15.6992Z" fill="white"/>
<path d="M28.3434 15.6992H25.8477V18.1775H28.3434V15.6992Z" fill="white"/>
<path d="M30.8355 15.6992H28.3398V18.1775H30.8355V15.6992Z" fill="white"/>
<path d="M35.8355 15.6992H33.3398V18.1775H35.8355V15.6992Z" fill="white"/>
<path d="M38.3238 15.6992H35.8281V18.1775H38.3238V15.6992Z" fill="white"/>
<path d="M40.8238 15.6992H38.3281V18.1775H40.8238V15.6992Z" fill="white"/>
<path d="M53.3004 15.6992H50.8047V18.1775H53.3004V15.6992Z" fill="white"/>
<path d="M55.8004 15.6992H53.3047V18.1775H55.8004V15.6992Z" fill="white"/>
<path d="M25.8473 18.1797H23.3516V20.658H25.8473V18.1797Z" fill="white"/>
<path d="M30.8355 18.1797H28.3398V20.658H30.8355V18.1797Z" fill="white"/>
<path d="M35.8277 18.1797H33.332V20.658H35.8277V18.1797Z" fill="white"/>
<path d="M40.8238 18.1797H38.3281V20.658H40.8238V18.1797Z" fill="white"/>
<path d="M45.8121 18.1797H43.3164V20.658H45.8121V18.1797Z" fill="white"/>
<path d="M50.8043 18.1797H48.3086V20.658H50.8043V18.1797Z" fill="white"/>
<path d="M55.8004 18.1797H53.3047V20.658H55.8004V18.1797Z" fill="white"/>
<path d="M30.8355 20.6562H28.3398V23.1346H30.8355V20.6562Z" fill="white"/>
<path d="M35.8277 20.6562H33.332V23.1346H35.8277V20.6562Z" fill="white"/>
<path d="M40.8238 20.6562H38.3281V23.1346H40.8238V20.6562Z" fill="white"/>
<path d="M48.3121 20.6562H45.8164V23.1346H48.3121V20.6562Z" fill="white"/>
<path d="M50.8043 20.6562H48.3086V23.1346H50.8043V20.6562Z" fill="white"/>
<path d="M53.3004 20.6562H50.8047V23.1346H53.3004V20.6562Z" fill="white"/>
<path d="M5.88241 23.1328H3.38672V25.6111H5.88241V23.1328Z" fill="white"/>
<path d="M13.3707 23.1328H10.875V25.6111H13.3707V23.1328Z" fill="white"/>
<path d="M18.359 23.1328H15.8633V25.6111H18.359V23.1328Z" fill="white"/>
<path d="M20.8512 23.1328H18.3555V25.6111H20.8512V23.1328Z" fill="white"/>
<path d="M25.8473 23.1367H23.3516V25.615H25.8473V23.1367Z" fill="white"/>
<path d="M30.8355 23.1328H28.3398V25.6111H30.8355V23.1328Z" fill="white"/>
<path d="M43.3199 23.1328H40.8242V25.6111H43.3199V23.1328Z" fill="white"/>
<path d="M50.8043 23.1328H48.3086V25.6111H50.8043V23.1328Z" fill="white"/>
<path d="M55.8004 23.1367H53.3047V25.615H55.8004V23.1367Z" fill="white"/>
<path d="M58.2887 23.1328H55.793V25.6111H58.2887V23.1328Z" fill="white"/>
<path d="M63.2809 23.1328H60.7852V25.6111H63.2809V23.1328Z" fill="white"/>
<path d="M5.88241 25.6133H3.38672V28.0916H5.88241V25.6133Z" fill="white"/>
<path d="M8.37851 25.6133H5.88281V28.0916H8.37851V25.6133Z" fill="white"/>
<path d="M13.3707 25.6133H10.875V28.0916H13.3707V25.6133Z" fill="white"/>
<path d="M15.859 25.6133H13.3633V28.0916H15.859V25.6133Z" fill="white"/>
<path d="M18.3629 25.6133H15.8672V28.0916H18.3629V25.6133Z" fill="white"/>
<path d="M23.3512 25.6133H20.8555V28.0916H23.3512V25.6133Z" fill="white"/>
<path d="M28.3473 25.6133H25.8516V28.0916H28.3473V25.6133Z" fill="white"/>
<path d="M30.8355 25.6133H28.3398V28.0916H30.8355V25.6133Z" fill="white"/>
<path d="M33.3355 25.6133H30.8398V28.0916H33.3355V25.6133Z" fill="white"/>
<path d="M35.8277 25.6133H33.332V28.0916H35.8277V25.6133Z" fill="white"/>
<path d="M40.8238 25.6133H38.3281V28.0916H40.8238V25.6133Z" fill="white"/>
<path d="M43.3199 25.6133H40.8242V28.0916H43.3199V25.6133Z" fill="white"/>
<path d="M48.3121 25.6133H45.8164V28.0916H48.3121V25.6133Z" fill="white"/>
<path d="M50.8043 25.6133H48.3086V28.0916H50.8043V25.6133Z" fill="white"/>
<path d="M58.2887 25.6133H55.793V28.0916H58.2887V25.6133Z" fill="white"/>
<path d="M60.7887 25.6133H58.293V28.0916H60.7887V25.6133Z" fill="white"/>
<path d="M68.2769 25.6133H65.7812V28.0916H68.2769V25.6133Z" fill="white"/>
<path d="M75.7652 25.6133H73.2695V28.0916H75.7652V25.6133Z" fill="white"/>
<path d="M13.3707 28.0898H10.875V30.5682H13.3707V28.0898Z" fill="white"/>
<path d="M15.859 28.0898H13.3633V30.5682H15.859V28.0898Z" fill="white"/>
<path d="M20.8512 28.0898H18.3555V30.5682H20.8512V28.0898Z" fill="white"/>
<path d="M23.3512 28.0898H20.8555V30.5682H23.3512V28.0898Z" fill="white"/>
<path d="M30.8355 28.0898H28.3398V30.5682H30.8355V28.0898Z" fill="white"/>
<path d="M33.3355 28.0898H30.8398V30.5682H33.3355V28.0898Z" fill="white"/>
<path d="M45.8121 28.0898H43.3164V30.5682H45.8121V28.0898Z" fill="white"/>
<path d="M48.3121 28.0898H45.8164V30.5682H48.3121V28.0898Z" fill="white"/>
<path d="M50.8043 28.0898H48.3086V30.5682H50.8043V28.0898Z" fill="white"/>
<path d="M53.3004 28.0898H50.8047V30.5682H53.3004V28.0898Z" fill="white"/>
<path d="M55.8004 28.0898H53.3047V30.5682H55.8004V28.0898Z" fill="white"/>
<path d="M58.2887 28.0898H55.793V30.5682H58.2887V28.0898Z" fill="white"/>
<path d="M60.7887 28.0898H58.293V30.5682H60.7887V28.0898Z" fill="white"/>
<path d="M63.2809 28.0898H60.7852V30.5682H63.2809V28.0898Z" fill="white"/>
<path d="M68.2769 28.0898H65.7812V30.5682H68.2769V28.0898Z" fill="white"/>
<path d="M70.773 28.0859H68.2773V30.5643H70.773V28.0859Z" fill="white"/>
<path d="M73.2652 28.0898H70.7695V30.5682H73.2652V28.0898Z" fill="white"/>
<path d="M18.3629 30.5664H15.8672V33.0447H18.3629V30.5664Z" fill="white"/>
<path d="M23.3512 30.5703H20.8555V33.0486H23.3512V30.5703Z" fill="white"/>
<path d="M28.3473 30.5664H25.8516V33.0447H28.3473V30.5664Z" fill="white"/>
<path d="M40.8238 30.5703H38.3281V33.0486H40.8238V30.5703Z" fill="white"/>
<path d="M43.3199 30.5664H40.8242V33.0447H43.3199V30.5664Z" fill="white"/>
<path d="M55.8004 30.5703H53.3047V33.0486H55.8004V30.5703Z" fill="white"/>
<path d="M60.7887 30.5664H58.293V33.0447H60.7887V30.5664Z" fill="white"/>
<path d="M70.7769 30.5703H68.2812V33.0486H70.7769V30.5703Z" fill="white"/>
<path d="M73.2652 30.5703H70.7695V33.0486H73.2652V30.5703Z" fill="white"/>
<path d="M10.8707 33.043H8.375V35.5213H10.8707V33.043Z" fill="white"/>
<path d="M18.3629 33.0391H15.8672V35.5174H18.3629V33.0391Z" fill="white"/>
<path d="M20.8512 33.043H18.3555V35.5213H20.8512V33.043Z" fill="white"/>
<path d="M23.3512 33.043H20.8555V35.5213H23.3512V33.043Z" fill="white"/>
<path d="M25.8473 33.043H23.3516V35.5213H25.8473V33.043Z" fill="white"/>
<path d="M33.3355 33.0391H30.8398V35.5174H33.3355V33.0391Z" fill="white"/>
<path d="M45.8121 33.0391H43.3164V35.5174H45.8121V33.0391Z" fill="white"/>
<path d="M48.3121 33.043H45.8164V35.5213H48.3121V33.043Z" fill="white"/>
<path d="M50.8043 33.043H48.3086V35.5213H50.8043V33.043Z" fill="white"/>
<path d="M58.2887 33.0391H55.793V35.5174H58.2887V33.0391Z" fill="white"/>
<path d="M60.7887 33.0391H58.293V35.5174H60.7887V33.0391Z" fill="white"/>
<path d="M68.2769 33.043H65.7812V35.5213H68.2769V33.043Z" fill="white"/>
<path d="M73.2652 33.043H70.7695V35.5213H73.2652V33.043Z" fill="white"/>
<path d="M75.7652 33.043H73.2695V35.5213H75.7652V33.043Z" fill="white"/>
<path d="M5.88241 35.5234H3.38672V38.0018H5.88241V35.5234Z" fill="white"/>
<path d="M10.8707 35.5234H8.375V38.0018H10.8707V35.5234Z" fill="white"/>
<path d="M13.3707 35.5234H10.875V38.0018H13.3707V35.5234Z" fill="white"/>
<path d="M15.859 35.5234H13.3633V38.0018H15.859V35.5234Z" fill="white"/>
<path d="M28.3434 35.5234H25.8477V38.0018H28.3434V35.5234Z" fill="white"/>
<path d="M30.8355 35.5234H28.3398V38.0018H30.8355V35.5234Z" fill="white"/>
<path d="M35.8277 35.5234H33.332V38.0018H35.8277V35.5234Z" fill="white"/>
<path d="M43.3199 35.5234H40.8242V38.0018H43.3199V35.5234Z" fill="white"/>
<path d="M50.8043 35.5234H48.3086V38.0018H50.8043V35.5234Z" fill="white"/>
<path d="M53.3004 35.5234H50.8047V38.0018H53.3004V35.5234Z" fill="white"/>
<path d="M58.2887 35.5234H55.793V38.0018H58.2887V35.5234Z" fill="white"/>
<path d="M20.8512 38H18.3555V40.4783H20.8512V38Z" fill="white"/>
<path d="M28.3473 38H25.8516V40.4783H28.3473V38Z" fill="white"/>
<path d="M33.3355 38H30.8398V40.4783H33.3355V38Z" fill="white"/>
<path d="M35.8277 38H33.332V40.4783H35.8277V38Z" fill="white"/>
<path d="M43.3199 38H40.8242V40.4783H43.3199V38Z" fill="white"/>
<path d="M45.8121 38H43.3164V40.4783H45.8121V38Z" fill="white"/>
<path d="M48.3121 38.0039H45.8164V40.4822H48.3121V38.0039Z" fill="white"/>
<path d="M50.8043 38H48.3086V40.4783H50.8043V38Z" fill="white"/>
<path d="M58.2887 38H55.793V40.4783H58.2887V38Z" fill="white"/>
<path d="M63.2809 38H60.7852V40.4783H63.2809V38Z" fill="white"/>
<path d="M68.2769 38.0039H65.7812V40.4822H68.2769V38.0039Z" fill="white"/>
<path d="M70.773 38H68.2773V40.4783H70.773V38Z" fill="white"/>
<path d="M73.2652 38.0039H70.7695V40.4822H73.2652V38.0039Z" fill="white"/>
<path d="M75.7652 38H73.2695V40.4783H75.7652V38Z" fill="white"/>
<path d="M5.88241 40.4727H3.38672V42.951H5.88241V40.4727Z" fill="white"/>
<path d="M15.859 40.4727H13.3633V42.951H15.859V40.4727Z" fill="white"/>
<path d="M23.3512 40.4727H20.8555V42.951H23.3512V40.4727Z" fill="white"/>
<path d="M38.3238 40.4727H35.8281V42.951H38.3238V40.4727Z" fill="white"/>
<path d="M40.8238 40.4727H38.3281V42.951H40.8238V40.4727Z" fill="white"/>
<path d="M45.8121 40.4727H43.3164V42.951H45.8121V40.4727Z" fill="white"/>
<path d="M48.3121 40.4727H45.8164V42.951H48.3121V40.4727Z" fill="white"/>
<path d="M65.7769 40.4727H63.2812V42.951H65.7769V40.4727Z" fill="white"/>
<path d="M68.2769 40.4727H65.7812V42.951H68.2769V40.4727Z" fill="white"/>
<path d="M73.2652 40.4727H70.7695V42.951H73.2652V40.4727Z" fill="white"/>
<path d="M8.37851 42.9531H5.88281V45.4314H8.37851V42.9531Z" fill="white"/>
<path d="M13.3707 42.9531H10.875V45.4314H13.3707V42.9531Z" fill="white"/>
<path d="M15.859 42.9531H13.3633V45.4314H15.859V42.9531Z" fill="white"/>
<path d="M18.3629 42.9531H15.8672V45.4314H18.3629V42.9531Z" fill="white"/>
<path d="M20.8512 42.9531H18.3555V45.4314H20.8512V42.9531Z" fill="white"/>
<path d="M25.8473 42.9531H23.3516V45.4314H25.8473V42.9531Z" fill="white"/>
<path d="M30.8355 42.9531H28.3398V45.4314H30.8355V42.9531Z" fill="white"/>
<path d="M38.3238 42.9531H35.8281V45.4314H38.3238V42.9531Z" fill="white"/>
<path d="M40.8238 42.9531H38.3281V45.4314H40.8238V42.9531Z" fill="white"/>
<path d="M43.3199 42.9531H40.8242V45.4314H43.3199V42.9531Z" fill="white"/>
<path d="M45.8121 42.9531H43.3164V45.4314H45.8121V42.9531Z" fill="white"/>
<path d="M48.3121 42.9531H45.8164V45.4314H48.3121V42.9531Z" fill="white"/>
<path d="M50.8043 42.9531H48.3086V45.4314H50.8043V42.9531Z" fill="white"/>
<path d="M53.3004 42.9531H50.8047V45.4314H53.3004V42.9531Z" fill="white"/>
<path d="M55.8004 42.9531H53.3047V45.4314H55.8004V42.9531Z" fill="white"/>
<path d="M73.2652 42.9531H70.7695V45.4314H73.2652V42.9531Z" fill="white"/>
<path d="M8.37851 45.4297H5.88281V47.908H8.37851V45.4297Z" fill="white"/>
<path d="M10.8707 45.4297H8.375V47.908H10.8707V45.4297Z" fill="white"/>
<path d="M13.3707 45.4297H10.875V47.908H13.3707V45.4297Z" fill="white"/>
<path d="M25.8473 45.4297H23.3516V47.908H25.8473V45.4297Z" fill="white"/>
<path d="M33.3355 45.4297H30.8398V47.908H33.3355V45.4297Z" fill="white"/>
<path d="M43.3199 45.4297H40.8242V47.908H43.3199V45.4297Z" fill="white"/>
<path d="M48.3121 45.4297H45.8164V47.908H48.3121V45.4297Z" fill="white"/>
<path d="M50.8043 45.4297H48.3086V47.908H50.8043V45.4297Z" fill="white"/>
<path d="M58.2926 45.4297H55.7969V47.908H58.2926V45.4297Z" fill="white"/>
<path d="M60.7887 45.4297H58.293V47.908H60.7887V45.4297Z" fill="white"/>
<path d="M68.2769 45.4297H65.7812V47.908H68.2769V45.4297Z" fill="white"/>
<path d="M75.7652 45.4297H73.2695V47.908H75.7652V45.4297Z" fill="white"/>
<path d="M5.88241 47.9023H3.38672V50.3807H5.88241V47.9023Z" fill="white"/>
<path d="M15.859 47.9023H13.3633V50.3807H15.859V47.9023Z" fill="white"/>
<path d="M18.3629 47.9023H15.8672V50.3807H18.3629V47.9023Z" fill="white"/>
<path d="M20.8512 47.9023H18.3555V50.3807H20.8512V47.9023Z" fill="white"/>
<path d="M23.3512 47.9023H20.8555V50.3807H23.3512V47.9023Z" fill="white"/>
<path d="M25.8473 47.9023H23.3516V50.3807H25.8473V47.9023Z" fill="white"/>
<path d="M33.3355 47.9023H30.8398V50.3807H33.3355V47.9023Z" fill="white"/>
<path d="M35.8277 47.9023H33.332V50.3807H35.8277V47.9023Z" fill="white"/>
<path d="M38.3238 47.9023H35.8281V50.3807H38.3238V47.9023Z" fill="white"/>
<path d="M50.8043 47.9023H48.3086V50.3807H50.8043V47.9023Z" fill="white"/>
<path d="M58.2887 47.9023H55.793V50.3807H58.2887V47.9023Z" fill="white"/>
<path d="M63.2809 47.9023H60.7852V50.3807H63.2809V47.9023Z" fill="white"/>
<path d="M73.2652 47.9023H70.7695V50.3807H73.2652V47.9023Z" fill="white"/>
<path d="M75.7652 47.9023H73.2695V50.3807H75.7652V47.9023Z" fill="white"/>
<path d="M15.859 50.3828H13.3633V52.8611H15.859V50.3828Z" fill="white"/>
<path d="M18.3629 50.3828H15.8672V52.8611H18.3629V50.3828Z" fill="white"/>
<path d="M23.3512 50.3828H20.8555V52.8611H23.3512V50.3828Z" fill="white"/>
<path d="M30.8355 50.3828H28.3398V52.8611H30.8355V50.3828Z" fill="white"/>
<path d="M33.3355 50.3828H30.8398V52.8611H33.3355V50.3828Z" fill="white"/>
<path d="M38.3238 50.3828H35.8281V52.8611H38.3238V50.3828Z" fill="white"/>
<path d="M43.3199 50.3828H40.8242V52.8611H43.3199V50.3828Z" fill="white"/>
<path d="M45.8121 50.3828H43.3164V52.8611H45.8121V50.3828Z" fill="white"/>
<path d="M48.3121 50.3828H45.8164V52.8611H48.3121V50.3828Z" fill="white"/>
<path d="M50.8043 50.3828H48.3086V52.8611H50.8043V50.3828Z" fill="white"/>
<path d="M55.8004 50.3828H53.3047V52.8611H55.8004V50.3828Z" fill="white"/>
<path d="M63.2809 50.3828H60.7852V52.8611H63.2809V50.3828Z" fill="white"/>
<path d="M65.7769 50.3828H63.2812V52.8611H65.7769V50.3828Z" fill="white"/>
<path d="M73.2652 50.3828H70.7695V52.8611H73.2652V50.3828Z" fill="white"/>
<path d="M75.7652 50.3828H73.2695V52.8611H75.7652V50.3828Z" fill="white"/>
<path d="M5.88241 52.8594H3.38672V55.3377H5.88241V52.8594Z" fill="white"/>
<path d="M13.3707 52.8594H10.875V55.3377H13.3707V52.8594Z" fill="white"/>
<path d="M15.859 52.8594H13.3633V55.3377H15.859V52.8594Z" fill="white"/>
<path d="M20.8512 52.8594H18.3555V55.3377H20.8512V52.8594Z" fill="white"/>
<path d="M25.8473 52.8594H23.3516V55.3377H25.8473V52.8594Z" fill="white"/>
<path d="M33.3355 52.8594H30.8398V55.3377H33.3355V52.8594Z" fill="white"/>
<path d="M35.8277 52.8594H33.332V55.3377H35.8277V52.8594Z" fill="white"/>
<path d="M40.8238 52.8594H38.3281V55.3377H40.8238V52.8594Z" fill="white"/>
<path d="M45.8121 52.8594H43.3164V55.3377H45.8121V52.8594Z" fill="white"/>
<path d="M50.8043 52.8594H48.3086V55.3377H50.8043V52.8594Z" fill="white"/>
<path d="M55.8004 52.8594H53.3047V55.3377H55.8004V52.8594Z" fill="white"/>
<path d="M58.2887 52.8594H55.793V55.3377H58.2887V52.8594Z" fill="white"/>
<path d="M60.7887 52.8594H58.293V55.3377H60.7887V52.8594Z" fill="white"/>
<path d="M63.2809 52.8594H60.7852V55.3377H63.2809V52.8594Z" fill="white"/>
<path d="M65.7769 52.8594H63.2812V55.3377H65.7769V52.8594Z" fill="white"/>
<path d="M70.773 52.8594H68.2773V55.3377H70.773V52.8594Z" fill="white"/>
<path d="M25.8473 55.3398H23.3516V57.8182H25.8473V55.3398Z" fill="white"/>
<path d="M28.3434 55.3398H25.8477V57.8182H28.3434V55.3398Z" fill="white"/>
<path d="M30.8355 55.3398H28.3398V57.8182H30.8355V55.3398Z" fill="white"/>
<path d="M38.3238 55.3398H35.8281V57.8182H38.3238V55.3398Z" fill="white"/>
<path d="M43.3199 55.3398H40.8242V57.8182H43.3199V55.3398Z" fill="white"/>
<path d="M45.8121 55.3398H43.3164V57.8182H45.8121V55.3398Z" fill="white"/>
<path d="M48.3121 55.3398H45.8164V57.8182H48.3121V55.3398Z" fill="white"/>
<path d="M50.8043 55.3398H48.3086V57.8182H50.8043V55.3398Z" fill="white"/>
<path d="M55.8004 55.3398H53.3047V57.8182H55.8004V55.3398Z" fill="white"/>
<path d="M65.7769 55.3398H63.2812V57.8182H65.7769V55.3398Z" fill="white"/>
<path d="M70.773 55.3398H68.2773V57.8182H70.773V55.3398Z" fill="white"/>
<path d="M73.2652 55.3398H70.7695V57.8182H73.2652V55.3398Z" fill="white"/>
<path d="M75.7652 55.3398H73.2695V57.8182H75.7652V55.3398Z" fill="white"/>
<path d="M28.3473 57.8164H25.8516V60.2947H28.3473V57.8164Z" fill="white"/>
<path d="M38.3238 57.8164H35.8281V60.2947H38.3238V57.8164Z" fill="white"/>
<path d="M40.8238 57.8164H38.3281V60.2947H40.8238V57.8164Z" fill="white"/>
<path d="M43.3199 57.8164H40.8242V60.2947H43.3199V57.8164Z" fill="white"/>
<path d="M48.3121 57.8164H45.8164V60.2947H48.3121V57.8164Z" fill="white"/>
<path d="M50.8043 57.8164H48.3086V60.2947H50.8043V57.8164Z" fill="white"/>
<path d="M55.8004 57.8164H53.3047V60.2947H55.8004V57.8164Z" fill="white"/>
<path d="M60.7887 57.8164H58.293V60.2947H60.7887V57.8164Z" fill="white"/>
<path d="M65.7769 57.8164H63.2812V60.2947H65.7769V57.8164Z" fill="white"/>
<path d="M73.2652 57.8164H70.7695V60.2947H73.2652V57.8164Z" fill="white"/>
<path d="M25.8473 60.293H23.3516V62.7713H25.8473V60.293Z" fill="white"/>
<path d="M28.3473 60.293H25.8516V62.7713H28.3473V60.293Z" fill="white"/>
<path d="M30.8355 60.293H28.3398V62.7713H30.8355V60.293Z" fill="white"/>
<path d="M33.3355 60.293H30.8398V62.7713H33.3355V60.293Z" fill="white"/>
<path d="M38.3238 60.293H35.8281V62.7713H38.3238V60.293Z" fill="white"/>
<path d="M45.8121 60.293H43.3164V62.7713H45.8121V60.293Z" fill="white"/>
<path d="M55.8004 60.293H53.3047V62.7713H55.8004V60.293Z" fill="white"/>
<path d="M65.7769 60.293H63.2812V62.7713H65.7769V60.293Z" fill="white"/>
<path d="M68.2769 60.293H65.7812V62.7713H68.2769V60.293Z" fill="white"/>
<path d="M70.773 60.293H68.2773V62.7713H70.773V60.293Z" fill="white"/>
<path d="M73.2652 60.293H70.7695V62.7713H73.2652V60.293Z" fill="white"/>
<path d="M28.3434 62.7734H25.8477V65.2518H28.3434V62.7734Z" fill="white"/>
<path d="M33.3355 62.7734H30.8398V65.2518H33.3355V62.7734Z" fill="white"/>
<path d="M40.8238 62.7734H38.3281V65.2518H40.8238V62.7734Z" fill="white"/>
<path d="M43.3199 62.7734H40.8242V65.2518H43.3199V62.7734Z" fill="white"/>
<path d="M50.8043 62.7734H48.3086V65.2518H50.8043V62.7734Z" fill="white"/>
<path d="M55.8004 62.7734H53.3047V65.2518H55.8004V62.7734Z" fill="white"/>
<path d="M58.2887 62.7734H55.793V65.2518H58.2887V62.7734Z" fill="white"/>
<path d="M60.7887 62.7734H58.293V65.2518H60.7887V62.7734Z" fill="white"/>
<path d="M63.2809 62.7734H60.7852V65.2518H63.2809V62.7734Z" fill="white"/>
<path d="M65.7769 62.7734H63.2812V65.2518H65.7769V62.7734Z" fill="white"/>
<path d="M73.2652 62.7734H70.7695V65.2518H73.2652V62.7734Z" fill="white"/>
<path d="M25.8473 65.25H23.3516V67.7283H25.8473V65.25Z" fill="white"/>
<path d="M28.3473 65.25H25.8516V67.7283H28.3473V65.25Z" fill="white"/>
<path d="M40.8238 65.2539H38.3281V67.7322H40.8238V65.2539Z" fill="white"/>
<path d="M43.3199 65.25H40.8242V67.7283H43.3199V65.25Z" fill="white"/>
<path d="M45.8121 65.2539H43.3164V67.7322H45.8121V65.2539Z" fill="white"/>
<path d="M60.7887 65.2539H58.293V67.7322H60.7887V65.2539Z" fill="white"/>
<path d="M63.2809 65.2539H60.7852V67.7322H63.2809V65.2539Z" fill="white"/>
<path d="M65.7769 65.25H63.2812V67.7283H65.7769V65.25Z" fill="white"/>
<path d="M68.2769 65.25H65.7812V67.7283H68.2769V65.25Z" fill="white"/>
<path d="M70.773 65.25H68.2773V67.7283H70.773V65.25Z" fill="white"/>
<path d="M75.7652 65.25H73.2695V67.7283H75.7652V65.25Z" fill="white"/>
<path d="M35.8355 67.7227H33.3398V70.201H35.8355V67.7227Z" fill="white"/>
<path d="M38.3238 67.7227H35.8281V70.201H38.3238V67.7227Z" fill="white"/>
<path d="M53.3004 67.7227H50.8047V70.201H53.3004V67.7227Z" fill="white"/>
<path d="M55.8004 67.7227H53.3047V70.201H55.8004V67.7227Z" fill="white"/>
<path d="M65.7769 67.7227H63.2812V70.201H65.7769V67.7227Z" fill="white"/>
<path d="M68.2769 67.7227H65.7812V70.201H68.2769V67.7227Z" fill="white"/>
<path d="M70.773 67.7227H68.2773V70.201H70.773V67.7227Z" fill="white"/>
<path d="M75.7652 67.7227H73.2695V70.201H75.7652V67.7227Z" fill="white"/>
<path d="M38.3238 70.207H35.8281V72.6853H38.3238V70.207Z" fill="white"/>
<path d="M43.3199 70.207H40.8242V72.6853H43.3199V70.207Z" fill="white"/>
<path d="M53.3004 70.207H50.8047V72.6853H53.3004V70.207Z" fill="white"/>
<path d="M55.8004 70.207H53.3047V72.6853H55.8004V70.207Z" fill="white"/>
<path d="M58.2926 70.207H55.7969V72.6853H58.2926V70.207Z" fill="white"/>
<path d="M63.2809 70.207H60.7852V72.6853H63.2809V70.207Z" fill="white"/>
<path d="M65.7769 70.207H63.2812V72.6853H65.7769V70.207Z" fill="white"/>
<path d="M73.2652 70.207H70.7695V72.6853H73.2652V70.207Z" fill="white"/>
<path d="M25.8473 72.6836H23.3516V75.1619H25.8473V72.6836Z" fill="white"/>
<path d="M28.3473 72.6836H25.8516V75.1619H28.3473V72.6836Z" fill="white"/>
<path d="M30.8355 72.6836H28.3398V75.1619H30.8355V72.6836Z" fill="white"/>
<path d="M35.8355 72.6836H33.3398V75.1619H35.8355V72.6836Z" fill="white"/>
<path d="M38.3238 72.6836H35.8281V75.1619H38.3238V72.6836Z" fill="white"/>
<path d="M55.8004 72.6836H53.3047V75.1619H55.8004V72.6836Z" fill="white"/>
<path d="M58.2887 72.6836H55.793V75.1619H58.2887V72.6836Z" fill="white"/>
<path d="M60.7887 72.6836H58.293V75.1619H60.7887V72.6836Z" fill="white"/>
<path d="M63.2809 72.6836H60.7852V75.1619H63.2809V72.6836Z" fill="white"/>
<path d="M65.7769 72.6836H63.2812V75.1619H65.7769V72.6836Z" fill="white"/>
<path d="M73.2652 72.6836H70.7695V75.1619H73.2652V72.6836Z" fill="white"/>
<path d="M18.2361 3.31641H6.0072H3.38672V5.91765V18.0568V20.658H6.0072H18.2361H20.8566V18.0568V5.91765V3.31641H18.2361ZM18.2361 18.0568H6.0072V5.91765H18.2361V18.0568Z" fill="white"/>
<path d="M73.1424 3.31641H60.9134H58.293V5.91765V18.0568V20.658H60.9134H73.1424H75.7628V18.0568V5.91765V3.31641H73.1424ZM73.1424 18.0568H60.9134V5.91765H73.1424V18.0568Z" fill="white"/>
<path d="M18.2361 57.8164H6.0072H3.38672V60.4176V72.5568V75.158H6.0072H18.2361H20.8566V72.5568V60.4176V57.8164H18.2361ZM18.2361 72.5568H6.0072V60.4176H18.2361V72.5568Z" fill="white"/>
<path d="M15.8621 8.26953H8.375V15.7016H15.8621V8.26953Z" fill="white"/>
<path d="M70.7683 8.26953H63.2812V15.7016H70.7683V8.26953Z" fill="white"/>
<path d="M15.8621 62.7734H8.375V70.2055H15.8621V62.7734Z" fill="white"/>
</g>
<defs>
<clipPath id="clip0_2740_3055">
<rect width="79.7995" height="79.2136" fill="white" transform="translate(0.554688 0.746094)"/>
</clipPath>
</defs>
</svg>
