<svg width="73" height="72" viewBox="0 0 73 72" fill="none" xmlns="http://www.w3.org/2000/svg">
<path d="M24.9586 0H22.4629V2.47832H24.9586V0Z" fill="white"/>
<path d="M27.4488 0H24.9531V2.47832H27.4488V0Z" fill="white"/>
<path d="M34.9391 0H32.4434V2.47832H34.9391V0Z" fill="white"/>
<path d="M42.4254 0H39.9297V2.47832H42.4254V0Z" fill="white"/>
<path d="M44.9273 0H42.4316V2.47832H44.9273V0Z" fill="white"/>
<path d="M49.9137 0H47.418V2.47832H49.9137V0Z" fill="white"/>
<path d="M52.4137 0H49.918V2.47832H52.4137V0Z" fill="white"/>
<path d="M34.9391 2.47656H32.4434V4.95488H34.9391V2.47656Z" fill="white"/>
<path d="M37.4371 2.47656H34.9414V4.95488H37.4371V2.47656Z" fill="white"/>
<path d="M39.9332 2.47656H37.4375V4.95488H39.9332V2.47656Z" fill="white"/>
<path d="M44.9273 2.47656H42.4316V4.95488H44.9273V2.47656Z" fill="white"/>
<path d="M52.4137 2.47656H49.918V4.95488H52.4137V2.47656Z" fill="white"/>
<path d="M29.9508 4.95312H27.4551V7.43144H29.9508V4.95312Z" fill="white"/>
<path d="M34.9391 4.95312H32.4434V7.43144H34.9391V4.95312Z" fill="white"/>
<path d="M42.4254 4.95312H39.9297V7.43144H42.4254V4.95312Z" fill="white"/>
<path d="M44.9273 4.95312H42.4316V7.43144H44.9273V4.95312Z" fill="white"/>
<path d="M49.9137 4.95312H47.418V7.43144H49.9137V4.95312Z" fill="white"/>
<path d="M52.4137 4.95312H49.918V7.43144H52.4137V4.95312Z" fill="white"/>
<path d="M29.9508 7.43359H27.4551V9.91191H29.9508V7.43359Z" fill="white"/>
<path d="M32.4488 7.43359H29.9531V9.91191H32.4488V7.43359Z" fill="white"/>
<path d="M34.9391 7.43359H32.4434V9.91191H34.9391V7.43359Z" fill="white"/>
<path d="M37.4371 7.43359H34.9414V9.91191H37.4371V7.43359Z" fill="white"/>
<path d="M39.9332 7.43359H37.4375V9.91191H39.9332V7.43359Z" fill="white"/>
<path d="M49.9137 7.43359H47.418V9.91191H49.9137V7.43359Z" fill="white"/>
<path d="M52.4137 7.43359H49.918V9.91191H52.4137V7.43359Z" fill="white"/>
<path d="M24.9586 9.9082H22.4629V12.3865H24.9586V9.9082Z" fill="white"/>
<path d="M29.9508 9.9082H27.4551V12.3865H29.9508V9.9082Z" fill="white"/>
<path d="M34.9391 9.9082H32.4434V12.3865H34.9391V9.9082Z" fill="white"/>
<path d="M37.4371 9.9082H34.9414V12.3865H37.4371V9.9082Z" fill="white"/>
<path d="M42.4254 9.9082H39.9297V12.3865H42.4254V9.9082Z" fill="white"/>
<path d="M44.9273 9.9082H42.4316V12.3865H44.9273V9.9082Z" fill="white"/>
<path d="M52.4137 9.9082H49.918V12.3865H52.4137V9.9082Z" fill="white"/>
<path d="M22.4605 12.3828H19.9648V14.8611H22.4605V12.3828Z" fill="white"/>
<path d="M24.9586 12.3828H22.4629V14.8611H24.9586V12.3828Z" fill="white"/>
<path d="M27.4488 12.3828H24.9531V14.8611H27.4488V12.3828Z" fill="white"/>
<path d="M32.4488 12.3828H29.9531V14.8611H32.4488V12.3828Z" fill="white"/>
<path d="M34.9391 12.3828H32.4434V14.8611H34.9391V12.3828Z" fill="white"/>
<path d="M37.4371 12.3828H34.9414V14.8611H37.4371V12.3828Z" fill="white"/>
<path d="M49.9137 12.3828H47.418V14.8611H49.9137V12.3828Z" fill="white"/>
<path d="M52.4137 12.3828H49.918V14.8611H52.4137V12.3828Z" fill="white"/>
<path d="M22.4605 14.8633H19.9648V17.3416H22.4605V14.8633Z" fill="white"/>
<path d="M27.4488 14.8633H24.9531V17.3416H27.4488V14.8633Z" fill="white"/>
<path d="M32.441 14.8633H29.9453V17.3416H32.441V14.8633Z" fill="white"/>
<path d="M37.4371 14.8633H34.9414V17.3416H37.4371V14.8633Z" fill="white"/>
<path d="M42.4254 14.8633H39.9297V17.3416H42.4254V14.8633Z" fill="white"/>
<path d="M47.4176 14.8633H44.9219V17.3416H47.4176V14.8633Z" fill="white"/>
<path d="M52.4137 14.8633H49.918V17.3416H52.4137V14.8633Z" fill="white"/>
<path d="M27.4488 17.3398H24.9531V19.8182H27.4488V17.3398Z" fill="white"/>
<path d="M32.441 17.3398H29.9453V19.8182H32.441V17.3398Z" fill="white"/>
<path d="M37.4371 17.3398H34.9414V19.8182H37.4371V17.3398Z" fill="white"/>
<path d="M44.9254 17.3398H42.4297V19.8182H44.9254V17.3398Z" fill="white"/>
<path d="M47.4176 17.3398H44.9219V19.8182H47.4176V17.3398Z" fill="white"/>
<path d="M49.9137 17.3398H47.418V19.8182H49.9137V17.3398Z" fill="white"/>
<path d="M2.49569 19.8164H0V22.2947H2.49569V19.8164Z" fill="white"/>
<path d="M9.98593 19.8164H7.49023V22.2947H9.98593V19.8164Z" fill="white"/>
<path d="M14.9742 19.8164H12.4785V22.2947H14.9742V19.8164Z" fill="white"/>
<path d="M17.4644 19.8164H14.9688V22.2947H17.4644V19.8164Z" fill="white"/>
<path d="M22.4605 19.8203H19.9648V22.2986H22.4605V19.8203Z" fill="white"/>
<path d="M27.4488 19.8164H24.9531V22.2947H27.4488V19.8164Z" fill="white"/>
<path d="M39.9332 19.8164H37.4375V22.2947H39.9332V19.8164Z" fill="white"/>
<path d="M47.4176 19.8164H44.9219V22.2947H47.4176V19.8164Z" fill="white"/>
<path d="M52.4137 19.8203H49.918V22.2986H52.4137V19.8203Z" fill="white"/>
<path d="M54.9039 19.8164H52.4082V22.2947H54.9039V19.8164Z" fill="white"/>
<path d="M59.8941 19.8164H57.3984V22.2947H59.8941V19.8164Z" fill="white"/>
<path d="M2.49569 22.2969H0V24.7752H2.49569V22.2969Z" fill="white"/>
<path d="M4.99179 22.2969H2.49609V24.7752H4.99179V22.2969Z" fill="white"/>
<path d="M9.98593 22.2969H7.49023V24.7752H9.98593V22.2969Z" fill="white"/>
<path d="M12.4723 22.2969H9.97656V24.7752H12.4723V22.2969Z" fill="white"/>
<path d="M14.9742 22.2969H12.4785V24.7752H14.9742V22.2969Z" fill="white"/>
<path d="M19.9644 22.2969H17.4688V24.7752H19.9644V22.2969Z" fill="white"/>
<path d="M24.9586 22.2969H22.4629V24.7752H24.9586V22.2969Z" fill="white"/>
<path d="M27.4488 22.2969H24.9531V24.7752H27.4488V22.2969Z" fill="white"/>
<path d="M29.9508 22.2969H27.4551V24.7752H29.9508V22.2969Z" fill="white"/>
<path d="M32.441 22.2969H29.9453V24.7752H32.441V22.2969Z" fill="white"/>
<path d="M37.4371 22.2969H34.9414V24.7752H37.4371V22.2969Z" fill="white"/>
<path d="M39.9351 22.2969H37.4395V24.7752H39.9351V22.2969Z" fill="white"/>
<path d="M44.9273 22.2969H42.4316V24.7752H44.9273V22.2969Z" fill="white"/>
<path d="M47.4176 22.2969H44.9219V24.7752H47.4176V22.2969Z" fill="white"/>
<path d="M54.9039 22.2969H52.4082V24.7752H54.9039V22.2969Z" fill="white"/>
<path d="M57.4019 22.2969H54.9062V24.7752H57.4019V22.2969Z" fill="white"/>
<path d="M64.8902 22.2969H62.3945V24.7752H64.8902V22.2969Z" fill="white"/>
<path d="M72.3785 22.2969H69.8828V24.7752H72.3785V22.2969Z" fill="white"/>
<path d="M9.98593 24.7734H7.49023V27.2518H9.98593V24.7734Z" fill="white"/>
<path d="M12.4723 24.7734H9.97656V27.2518H12.4723V24.7734Z" fill="white"/>
<path d="M17.4644 24.7734H14.9688V27.2518H17.4644V24.7734Z" fill="white"/>
<path d="M19.9625 24.7734H17.4668V27.2518H19.9625V24.7734Z" fill="white"/>
<path d="M27.4488 24.7734H24.9531V27.2518H27.4488V24.7734Z" fill="white"/>
<path d="M29.9508 24.7734H27.4551V27.2518H29.9508V24.7734Z" fill="white"/>
<path d="M42.4254 24.7734H39.9297V27.2518H42.4254V24.7734Z" fill="white"/>
<path d="M44.9273 24.7734H42.4316V27.2518H44.9273V24.7734Z" fill="white"/>
<path d="M47.4176 24.7734H44.9219V27.2518H47.4176V24.7734Z" fill="white"/>
<path d="M49.9137 24.7734H47.418V27.2518H49.9137V24.7734Z" fill="white"/>
<path d="M52.4137 24.7734H49.918V27.2518H52.4137V24.7734Z" fill="white"/>
<path d="M54.9039 24.7734H52.4082V27.2518H54.9039V24.7734Z" fill="white"/>
<path d="M57.4019 24.7734H54.9062V27.2518H57.4019V24.7734Z" fill="white"/>
<path d="M59.8941 24.7734H57.3984V27.2518H59.8941V24.7734Z" fill="white"/>
<path d="M64.8902 24.7734H62.3945V27.2518H64.8902V24.7734Z" fill="white"/>
<path d="M67.3883 24.7695H64.8926V27.2478H67.3883V24.7695Z" fill="white"/>
<path d="M69.8785 24.7734H67.3828V27.2518H69.8785V24.7734Z" fill="white"/>
<path d="M14.9742 27.25H12.4785V29.7283H14.9742V27.25Z" fill="white"/>
<path d="M19.9644 27.252H17.4688V29.7303H19.9644V27.252Z" fill="white"/>
<path d="M24.9586 27.25H22.4629V29.7283H24.9586V27.25Z" fill="white"/>
<path d="M37.4371 27.252H34.9414V29.7303H37.4371V27.252Z" fill="white"/>
<path d="M39.9332 27.25H37.4375V29.7283H39.9332V27.25Z" fill="white"/>
<path d="M52.4137 27.252H49.918V29.7303H52.4137V27.252Z" fill="white"/>
<path d="M57.4019 27.25H54.9062V29.7283H57.4019V27.25Z" fill="white"/>
<path d="M67.3883 27.252H64.8926V29.7303H67.3883V27.252Z" fill="white"/>
<path d="M69.8785 27.252H67.3828V29.7303H69.8785V27.252Z" fill="white"/>
<path d="M7.48398 29.7266H4.98828V32.2049H7.48398V29.7266Z" fill="white"/>
<path d="M14.9742 29.7227H12.4785V32.201H14.9742V29.7227Z" fill="white"/>
<path d="M17.4644 29.7266H14.9688V32.2049H17.4644V29.7266Z" fill="white"/>
<path d="M19.9625 29.7266H17.4668V32.2049H19.9625V29.7266Z" fill="white"/>
<path d="M22.4605 29.7266H19.9648V32.2049H22.4605V29.7266Z" fill="white"/>
<path d="M29.9508 29.7227H27.4551V32.201H29.9508V29.7227Z" fill="white"/>
<path d="M42.4254 29.7227H39.9297V32.201H42.4254V29.7227Z" fill="white"/>
<path d="M44.9273 29.7266H42.4316V32.2049H44.9273V29.7266Z" fill="white"/>
<path d="M47.4176 29.7266H44.9219V32.2049H47.4176V29.7266Z" fill="white"/>
<path d="M54.9039 29.7227H52.4082V32.201H54.9039V29.7227Z" fill="white"/>
<path d="M57.4019 29.7227H54.9062V32.201H57.4019V29.7227Z" fill="white"/>
<path d="M64.8902 29.7266H62.3945V32.2049H64.8902V29.7266Z" fill="white"/>
<path d="M69.8785 29.7266H67.3828V32.2049H69.8785V29.7266Z" fill="white"/>
<path d="M72.3785 29.7266H69.8828V32.2049H72.3785V29.7266Z" fill="white"/>
<path d="M2.49569 32.207H0V34.6853H2.49569V32.207Z" fill="white"/>
<path d="M7.48398 32.207H4.98828V34.6853H7.48398V32.207Z" fill="white"/>
<path d="M9.98593 32.207H7.49023V34.6853H9.98593V32.207Z" fill="white"/>
<path d="M12.4723 32.207H9.97656V34.6853H12.4723V32.207Z" fill="white"/>
<path d="M24.9586 32.207H22.4629V34.6853H24.9586V32.207Z" fill="white"/>
<path d="M27.4488 32.207H24.9531V34.6853H27.4488V32.207Z" fill="white"/>
<path d="M32.441 32.207H29.9453V34.6853H32.441V32.207Z" fill="white"/>
<path d="M39.9332 32.207H37.4375V34.6853H39.9332V32.207Z" fill="white"/>
<path d="M47.4176 32.207H44.9219V34.6853H47.4176V32.207Z" fill="white"/>
<path d="M49.9137 32.207H47.418V34.6853H49.9137V32.207Z" fill="white"/>
<path d="M54.9039 32.207H52.4082V34.6853H54.9039V32.207Z" fill="white"/>
<path d="M17.4664 34.6855H14.9707V37.1639H17.4664V34.6855Z" fill="white"/>
<path d="M24.9586 34.6855H22.4629V37.1639H24.9586V34.6855Z" fill="white"/>
<path d="M29.9508 34.6855H27.4551V37.1639H29.9508V34.6855Z" fill="white"/>
<path d="M32.441 34.6855H29.9453V37.1639H32.441V34.6855Z" fill="white"/>
<path d="M39.9332 34.6836H37.4375V37.1619H39.9332V34.6836Z" fill="white"/>
<path d="M42.4254 34.6855H39.9297V37.1639H42.4254V34.6855Z" fill="white"/>
<path d="M44.9273 34.6875H42.4316V37.1658H44.9273V34.6875Z" fill="white"/>
<path d="M47.4176 34.6855H44.9219V37.1639H47.4176V34.6855Z" fill="white"/>
<path d="M54.9039 34.6855H52.4082V37.1639H54.9039V34.6855Z" fill="white"/>
<path d="M59.8941 34.6855H57.3984V37.1639H59.8941V34.6855Z" fill="white"/>
<path d="M64.8902 34.6875H62.3945V37.1658H64.8902V34.6875Z" fill="white"/>
<path d="M67.3883 34.6855H64.8926V37.1639H67.3883V34.6855Z" fill="white"/>
<path d="M69.8785 34.6875H67.3828V37.1658H69.8785V34.6875Z" fill="white"/>
<path d="M72.3785 34.6855H69.8828V37.1639H72.3785V34.6855Z" fill="white"/>
<path d="M2.49569 37.1562H0V39.6346H2.49569V37.1562Z" fill="white"/>
<path d="M12.4723 37.1562H9.97656V39.6346H12.4723V37.1562Z" fill="white"/>
<path d="M19.9625 37.1562H17.4668V39.6346H19.9625V37.1562Z" fill="white"/>
<path d="M34.9391 37.1562H32.4434V39.6346H34.9391V37.1562Z" fill="white"/>
<path d="M37.4371 37.1562H34.9414V39.6346H37.4371V37.1562Z" fill="white"/>
<path d="M42.4254 37.1562H39.9297V39.6346H42.4254V37.1562Z" fill="white"/>
<path d="M44.9273 37.1562H42.4316V39.6346H44.9273V37.1562Z" fill="white"/>
<path d="M62.3902 37.1562H59.8945V39.6346H62.3902V37.1562Z" fill="white"/>
<path d="M64.8902 37.1562H62.3945V39.6346H64.8902V37.1562Z" fill="white"/>
<path d="M69.8785 37.1562H67.3828V39.6346H69.8785V37.1562Z" fill="white"/>
<path d="M4.99179 39.6367H2.49609V42.115H4.99179V39.6367Z" fill="white"/>
<path d="M9.98593 39.6367H7.49023V42.115H9.98593V39.6367Z" fill="white"/>
<path d="M12.4723 39.6367H9.97656V42.115H12.4723V39.6367Z" fill="white"/>
<path d="M14.9742 39.6367H12.4785V42.115H14.9742V39.6367Z" fill="white"/>
<path d="M17.4644 39.6367H14.9688V42.115H17.4644V39.6367Z" fill="white"/>
<path d="M22.4605 39.6367H19.9648V42.115H22.4605V39.6367Z" fill="white"/>
<path d="M27.4488 39.6367H24.9531V42.115H27.4488V39.6367Z" fill="white"/>
<path d="M34.9391 39.6367H32.4434V42.115H34.9391V39.6367Z" fill="white"/>
<path d="M37.4371 39.6367H34.9414V42.115H37.4371V39.6367Z" fill="white"/>
<path d="M39.9332 39.6367H37.4375V42.115H39.9332V39.6367Z" fill="white"/>
<path d="M42.4254 39.6367H39.9297V42.115H42.4254V39.6367Z" fill="white"/>
<path d="M44.9273 39.6367H42.4316V42.115H44.9273V39.6367Z" fill="white"/>
<path d="M47.4176 39.6367H44.9219V42.115H47.4176V39.6367Z" fill="white"/>
<path d="M49.9137 39.6367H47.418V42.115H49.9137V39.6367Z" fill="white"/>
<path d="M52.4137 39.6367H49.918V42.115H52.4137V39.6367Z" fill="white"/>
<path d="M69.8785 39.6367H67.3828V42.115H69.8785V39.6367Z" fill="white"/>
<path d="M4.99179 42.1133H2.49609V44.5916H4.99179V42.1133Z" fill="white"/>
<path d="M7.48398 42.1133H4.98828V44.5916H7.48398V42.1133Z" fill="white"/>
<path d="M9.98593 42.1133H7.49023V44.5916H9.98593V42.1133Z" fill="white"/>
<path d="M22.4605 42.1133H19.9648V44.5916H22.4605V42.1133Z" fill="white"/>
<path d="M29.9508 42.1133H27.4551V44.5916H29.9508V42.1133Z" fill="white"/>
<path d="M39.9332 42.1133H37.4375V44.5916H39.9332V42.1133Z" fill="white"/>
<path d="M44.9273 42.1133H42.4316V44.5916H44.9273V42.1133Z" fill="white"/>
<path d="M47.4176 42.1133H44.9219V44.5916H47.4176V42.1133Z" fill="white"/>
<path d="M54.9059 42.1133H52.4102V44.5916H54.9059V42.1133Z" fill="white"/>
<path d="M57.4019 42.1133H54.9062V44.5916H57.4019V42.1133Z" fill="white"/>
<path d="M64.8902 42.1133H62.3945V44.5916H64.8902V42.1133Z" fill="white"/>
<path d="M72.3785 42.1133H69.8828V44.5916H72.3785V42.1133Z" fill="white"/>
<path d="M2.49569 44.5879H0V47.0662H2.49569V44.5879Z" fill="white"/>
<path d="M12.4723 44.5879H9.97656V47.0662H12.4723V44.5879Z" fill="white"/>
<path d="M14.9742 44.5879H12.4785V47.0662H14.9742V44.5879Z" fill="white"/>
<path d="M17.4644 44.5879H14.9688V47.0662H17.4644V44.5879Z" fill="white"/>
<path d="M19.9644 44.5879H17.4688V47.0662H19.9644V44.5879Z" fill="white"/>
<path d="M22.4605 44.5879H19.9648V47.0662H22.4605V44.5879Z" fill="white"/>
<path d="M29.9508 44.5879H27.4551V47.0662H29.9508V44.5879Z" fill="white"/>
<path d="M32.441 44.5879H29.9453V47.0662H32.441V44.5879Z" fill="white"/>
<path d="M34.9391 44.5879H32.4434V47.0662H34.9391V44.5879Z" fill="white"/>
<path d="M47.4176 44.5879H44.9219V47.0662H47.4176V44.5879Z" fill="white"/>
<path d="M54.9039 44.5879H52.4082V47.0662H54.9039V44.5879Z" fill="white"/>
<path d="M59.8941 44.5879H57.3984V47.0662H59.8941V44.5879Z" fill="white"/>
<path d="M69.8785 44.5879H67.3828V47.0662H69.8785V44.5879Z" fill="white"/>
<path d="M72.3785 44.5879H69.8828V47.0662H72.3785V44.5879Z" fill="white"/>
<path d="M12.4723 47.0645H9.97656V49.5428H12.4723V47.0645Z" fill="white"/>
<path d="M14.9742 47.0684H12.4785V49.5467H14.9742V47.0684Z" fill="white"/>
<path d="M19.9644 47.0645H17.4688V49.5428H19.9644V47.0645Z" fill="white"/>
<path d="M27.4488 47.0684H24.9531V49.5467H27.4488V47.0684Z" fill="white"/>
<path d="M29.9508 47.0645H27.4551V49.5428H29.9508V47.0645Z" fill="white"/>
<path d="M34.9391 47.0684H32.4434V49.5467H34.9391V47.0684Z" fill="white"/>
<path d="M39.9332 47.0645H37.4375V49.5428H39.9332V47.0645Z" fill="white"/>
<path d="M42.4254 47.0645H39.9297V49.5428H42.4254V47.0645Z" fill="white"/>
<path d="M44.9273 47.0684H42.4316V49.5467H44.9273V47.0684Z" fill="white"/>
<path d="M47.4176 47.0645H44.9219V49.5428H47.4176V47.0645Z" fill="white"/>
<path d="M52.4137 47.0684H49.918V49.5467H52.4137V47.0684Z" fill="white"/>
<path d="M59.8941 47.0645H57.3984V49.5428H59.8941V47.0645Z" fill="white"/>
<path d="M62.3902 47.0684H59.8945V49.5467H62.3902V47.0684Z" fill="white"/>
<path d="M69.8785 47.0645H67.3828V49.5428H69.8785V47.0645Z" fill="white"/>
<path d="M72.3785 47.0645H69.8828V49.5428H72.3785V47.0645Z" fill="white"/>
<path d="M2.49569 49.543H0V52.0213H2.49569V49.543Z" fill="white"/>
<path d="M9.98593 49.543H7.49023V52.0213H9.98593V49.543Z" fill="white"/>
<path d="M12.4723 49.543H9.97656V52.0213H12.4723V49.543Z" fill="white"/>
<path d="M17.4644 49.543H14.9688V52.0213H17.4644V49.543Z" fill="white"/>
<path d="M22.4605 49.543H19.9648V52.0213H22.4605V49.543Z" fill="white"/>
<path d="M29.9508 49.543H27.4551V52.0213H29.9508V49.543Z" fill="white"/>
<path d="M32.441 49.543H29.9453V52.0213H32.441V49.543Z" fill="white"/>
<path d="M37.4371 49.543H34.9414V52.0213H37.4371V49.543Z" fill="white"/>
<path d="M42.4254 49.543H39.9297V52.0213H42.4254V49.543Z" fill="white"/>
<path d="M47.4176 49.543H44.9219V52.0213H47.4176V49.543Z" fill="white"/>
<path d="M52.4137 49.543H49.918V52.0213H52.4137V49.543Z" fill="white"/>
<path d="M54.9039 49.543H52.4082V52.0213H54.9039V49.543Z" fill="white"/>
<path d="M57.4019 49.543H54.9062V52.0213H57.4019V49.543Z" fill="white"/>
<path d="M59.8941 49.543H57.3984V52.0213H59.8941V49.543Z" fill="white"/>
<path d="M62.3902 49.543H59.8945V52.0213H62.3902V49.543Z" fill="white"/>
<path d="M67.3883 49.543H64.8926V52.0213H67.3883V49.543Z" fill="white"/>
<path d="M22.4605 52.0234H19.9648V54.5018H22.4605V52.0234Z" fill="white"/>
<path d="M24.9586 52.0234H22.4629V54.5018H24.9586V52.0234Z" fill="white"/>
<path d="M27.4488 52.0234H24.9531V54.5018H27.4488V52.0234Z" fill="white"/>
<path d="M34.9391 52.0234H32.4434V54.5018H34.9391V52.0234Z" fill="white"/>
<path d="M39.9332 52.0234H37.4375V54.5018H39.9332V52.0234Z" fill="white"/>
<path d="M42.4254 52.0234H39.9297V54.5018H42.4254V52.0234Z" fill="white"/>
<path d="M44.9254 52.0234H42.4297V54.5018H44.9254V52.0234Z" fill="white"/>
<path d="M47.4176 52.0234H44.9219V54.5018H47.4176V52.0234Z" fill="white"/>
<path d="M52.4137 52.0234H49.918V54.5018H52.4137V52.0234Z" fill="white"/>
<path d="M62.3902 52.0234H59.8945V54.5018H62.3902V52.0234Z" fill="white"/>
<path d="M67.3883 52.0234H64.8926V54.5018H67.3883V52.0234Z" fill="white"/>
<path d="M69.8785 52.0234H67.3828V54.5018H69.8785V52.0234Z" fill="white"/>
<path d="M72.3785 52.0234H69.8828V54.5018H72.3785V52.0234Z" fill="white"/>
<path d="M24.9586 54.5H22.4629V56.9783H24.9586V54.5Z" fill="white"/>
<path d="M34.9391 54.5H32.4434V56.9783H34.9391V54.5Z" fill="white"/>
<path d="M37.4371 54.5H34.9414V56.9783H37.4371V54.5Z" fill="white"/>
<path d="M39.9332 54.5H37.4375V56.9783H39.9332V54.5Z" fill="white"/>
<path d="M44.9254 54.5H42.4297V56.9783H44.9254V54.5Z" fill="white"/>
<path d="M47.4176 54.5H44.9219V56.9783H47.4176V54.5Z" fill="white"/>
<path d="M52.4137 54.5H49.918V56.9783H52.4137V54.5Z" fill="white"/>
<path d="M57.4019 54.5H54.9062V56.9783H57.4019V54.5Z" fill="white"/>
<path d="M62.3902 54.5H59.8945V56.9783H62.3902V54.5Z" fill="white"/>
<path d="M69.8785 54.5H67.3828V56.9783H69.8785V54.5Z" fill="white"/>
<path d="M22.4605 56.9766H19.9648V59.4549H22.4605V56.9766Z" fill="white"/>
<path d="M24.9586 56.9766H22.4629V59.4549H24.9586V56.9766Z" fill="white"/>
<path d="M27.4488 56.9766H24.9531V59.4549H27.4488V56.9766Z" fill="white"/>
<path d="M29.9508 56.9766H27.4551V59.4549H29.9508V56.9766Z" fill="white"/>
<path d="M34.9391 56.9766H32.4434V59.4549H34.9391V56.9766Z" fill="white"/>
<path d="M42.4254 56.9766H39.9297V59.4549H42.4254V56.9766Z" fill="white"/>
<path d="M52.4137 56.9766H49.918V59.4549H52.4137V56.9766Z" fill="white"/>
<path d="M62.3902 56.9766H59.8945V59.4549H62.3902V56.9766Z" fill="white"/>
<path d="M64.8902 56.9766H62.3945V59.4549H64.8902V56.9766Z" fill="white"/>
<path d="M67.3883 56.9766H64.8926V59.4549H67.3883V56.9766Z" fill="white"/>
<path d="M69.8785 56.9766H67.3828V59.4549H69.8785V56.9766Z" fill="white"/>
<path d="M24.9586 59.459H22.4629V61.9373H24.9586V59.459Z" fill="white"/>
<path d="M29.9508 59.459H27.4551V61.9373H29.9508V59.459Z" fill="white"/>
<path d="M37.4371 59.457H34.9414V61.9353H37.4371V59.457Z" fill="white"/>
<path d="M39.9351 59.459H37.4395V61.9373H39.9351V59.459Z" fill="white"/>
<path d="M47.4176 59.459H44.9219V61.9373H47.4176V59.459Z" fill="white"/>
<path d="M52.4137 59.457H49.918V61.9353H52.4137V59.457Z" fill="white"/>
<path d="M54.9039 59.459H52.4082V61.9373H54.9039V59.459Z" fill="white"/>
<path d="M57.4019 59.457H54.9062V61.9353H57.4019V59.457Z" fill="white"/>
<path d="M59.8941 59.457H57.3984V61.9353H59.8941V59.457Z" fill="white"/>
<path d="M62.3902 59.459H59.8945V61.9373H62.3902V59.459Z" fill="white"/>
<path d="M69.8785 59.459H67.3828V61.9373H69.8785V59.459Z" fill="white"/>
<path d="M22.4605 61.9336H19.9648V64.4119H22.4605V61.9336Z" fill="white"/>
<path d="M24.9586 61.9336H22.4629V64.4119H24.9586V61.9336Z" fill="white"/>
<path d="M37.4371 61.9375H34.9414V64.4158H37.4371V61.9375Z" fill="white"/>
<path d="M39.9332 61.9336H37.4375V64.4119H39.9332V61.9336Z" fill="white"/>
<path d="M42.4254 61.9375H39.9297V64.4158H42.4254V61.9375Z" fill="white"/>
<path d="M57.4019 61.9375H54.9062V64.4158H57.4019V61.9375Z" fill="white"/>
<path d="M59.8941 61.9375H57.3984V64.4158H59.8941V61.9375Z" fill="white"/>
<path d="M62.3902 61.9336H59.8945V64.4119H62.3902V61.9336Z" fill="white"/>
<path d="M64.8902 61.9336H62.3945V64.4119H64.8902V61.9336Z" fill="white"/>
<path d="M67.3863 61.9336H64.8906V64.4119H67.3863V61.9336Z" fill="white"/>
<path d="M72.3785 61.9336H69.8828V64.4119H72.3785V61.9336Z" fill="white"/>
<path d="M32.4488 64.4062H29.9531V66.8846H32.4488V64.4062Z" fill="white"/>
<path d="M34.9391 64.4062H32.4434V66.8846H34.9391V64.4062Z" fill="white"/>
<path d="M49.9137 64.4062H47.418V66.8846H49.9137V64.4062Z" fill="white"/>
<path d="M52.4137 64.4062H49.918V66.8846H52.4137V64.4062Z" fill="white"/>
<path d="M62.3902 64.4062H59.8945V66.8846H62.3902V64.4062Z" fill="white"/>
<path d="M64.8902 64.4062H62.3945V66.8846H64.8902V64.4062Z" fill="white"/>
<path d="M67.3883 64.4062H64.8926V66.8846H67.3883V64.4062Z" fill="white"/>
<path d="M72.3785 64.4062H69.8828V66.8846H72.3785V64.4062Z" fill="white"/>
<path d="M34.9391 66.8906H32.4434V69.3689H34.9391V66.8906Z" fill="white"/>
<path d="M39.9332 66.8906H37.4375V69.3689H39.9332V66.8906Z" fill="white"/>
<path d="M49.9137 66.8906H47.418V69.3689H49.9137V66.8906Z" fill="white"/>
<path d="M52.4137 66.8906H49.918V69.3689H52.4137V66.8906Z" fill="white"/>
<path d="M54.9059 66.8906H52.4102V69.3689H54.9059V66.8906Z" fill="white"/>
<path d="M59.8941 66.8906H57.3984V69.3689H59.8941V66.8906Z" fill="white"/>
<path d="M62.3902 66.8906H59.8945V69.3689H62.3902V66.8906Z" fill="white"/>
<path d="M69.8785 66.8906H67.3828V69.3689H69.8785V66.8906Z" fill="white"/>
<path d="M22.4605 69.3672H19.9648V71.8455H22.4605V69.3672Z" fill="white"/>
<path d="M24.9586 69.3672H22.4629V71.8455H24.9586V69.3672Z" fill="white"/>
<path d="M27.4488 69.3672H24.9531V71.8455H27.4488V69.3672Z" fill="white"/>
<path d="M32.4488 69.3672H29.9531V71.8455H32.4488V69.3672Z" fill="white"/>
<path d="M34.9391 69.3672H32.4434V71.8455H34.9391V69.3672Z" fill="white"/>
<path d="M52.4137 69.3672H49.918V71.8455H52.4137V69.3672Z" fill="white"/>
<path d="M54.9039 69.3672H52.4082V71.8455H54.9039V69.3672Z" fill="white"/>
<path d="M57.4019 69.3672H54.9062V71.8455H57.4019V69.3672Z" fill="white"/>
<path d="M59.8941 69.3672H57.3984V71.8455H59.8941V69.3672Z" fill="white"/>
<path d="M62.3902 69.3672H59.8945V71.8455H62.3902V69.3672Z" fill="white"/>
<path d="M69.8785 69.3672H67.3828V71.8455H69.8785V69.3672Z" fill="white"/>
<path d="M14.8494 0H2.62048H0V2.60124V14.7404V17.3416H2.62048H14.8494H17.4699V14.7404V2.60124V0H14.8494ZM14.8494 14.7404H2.62048V2.60124H14.8494V14.7404Z" fill="white"/>
<path d="M69.7556 0H57.5267H54.9062V2.60124V14.7404V17.3416H57.5267H69.7556H72.3761V14.7404V2.60124V0H69.7556ZM69.7556 14.7404H57.5267V2.60124H69.7556V14.7404Z" fill="white"/>
<path d="M14.8494 54.5H2.62048H0V57.1012V69.2404V71.8416H2.62048H14.8494H17.4699V69.2404V57.1012V54.5H14.8494ZM14.8494 69.2404H2.62048V57.1012H14.8494V69.2404Z" fill="white"/>
<path d="M12.4754 4.95312H4.98828V12.3852H12.4754V4.95312Z" fill="white"/>
<path d="M67.3816 4.95312H59.8945V12.3852H67.3816V4.95312Z" fill="white"/>
<path d="M12.4773 59.459H4.99023V66.8911H12.4773V59.459Z" fill="white"/>
</svg>
