<svg width="34" height="33" viewBox="0 0 34 33" fill="none" xmlns="http://www.w3.org/2000/svg">
<g clip-path="url(#clip0_2740_3040)">
<mask id="mask0_2740_3040" style="mask-type:luminance" maskUnits="userSpaceOnUse" x="0" y="0" width="34" height="33">
<path d="M33.4131 0.140625H0.777344V32.4576H33.4131V0.140625Z" fill="white"/>
</mask>
<g mask="url(#mask0_2740_3040)">
<path d="M17.0263 32.4519H17.1564C23.6362 32.4519 27.3974 31.8059 30.0616 29.2446C32.7781 26.5277 33.4054 22.7781 33.4054 16.3866V16.2059C33.4054 9.8163 32.7781 6.09179 30.0616 3.3479C27.3993 0.786696 23.611 0.140625 17.1583 0.140625H17.0282C10.5485 0.140625 6.78525 0.786696 4.12112 3.3479C1.40454 6.06486 0.777344 9.8163 0.777344 16.2059V16.3866C0.777344 22.7762 1.40454 26.5008 4.12112 29.2446C6.76002 31.8059 10.5485 32.4519 17.0263 32.4519Z" fill="white"/>
<path d="M29.5235 16.0524C29.5235 15.9294 29.4225 15.8275 29.2982 15.8217C24.8385 15.6544 22.1244 15.0911 20.2255 13.2109C18.3228 11.3267 17.7558 8.63705 17.5869 4.21129C17.583 4.08825 17.4801 3.98828 17.3539 3.98828H16.8336C16.7093 3.98828 16.6064 4.08825 16.6006 4.21129C16.4317 8.63513 15.8648 11.3267 13.9621 13.2109C12.0613 15.0931 9.34897 15.6544 4.88927 15.8217C4.76501 15.8256 4.66406 15.9275 4.66406 16.0524V16.5677C4.66406 16.6907 4.76501 16.7926 4.88927 16.7984C9.34897 16.9656 12.0632 17.529 13.9621 19.4092C15.8609 21.2895 16.4278 23.9716 16.5987 28.3799C16.6025 28.503 16.7055 28.603 16.8317 28.603H17.3539C17.4782 28.603 17.5811 28.503 17.5869 28.3799C17.7578 23.9716 18.3247 21.2895 20.2236 19.4092C22.1244 17.527 24.8366 16.9656 29.2963 16.7984C29.4206 16.7945 29.5216 16.6926 29.5216 16.5677V16.0524H29.5235Z" fill="#D55A00"/>
</g>
</g>
<defs>
<clipPath id="clip0_2740_3040">
<rect x="0.703125" y="0.140625" width="32.8222" height="32.5016" rx="2.94586" fill="white"/>
</clipPath>
</defs>
</svg>
