<svg width="34" height="33" viewBox="0 0 34 33" fill="none" xmlns="http://www.w3.org/2000/svg">
<g clip-path="url(#clip0_2740_3047)">
<path fill-rule="evenodd" clip-rule="evenodd" d="M2.77987 2.42531C0.472656 4.70999 0.472656 8.38713 0.472656 15.7414V17.0415C0.472656 24.3957 0.472656 28.0729 2.77987 30.3576C5.08709 32.6423 8.80049 32.6423 16.2273 32.6423H17.5402C24.967 32.6423 28.6804 32.6423 30.9876 30.3576C33.2948 28.0729 33.2948 24.3957 33.2948 17.0415V15.7414C33.2948 8.38713 33.2948 4.70999 30.9876 2.42531C28.6804 0.140625 24.967 0.140625 17.5402 0.140625H16.2273C8.80049 0.140625 5.08709 0.140625 2.77987 2.42531ZM6.01114 10.0263C6.18893 18.4767 10.4558 23.555 17.9365 23.555H18.3605V18.7204C21.1094 18.9913 23.188 20.982 24.0222 23.555H27.9063C26.8396 19.709 24.0359 17.5829 22.2853 16.7703C24.0359 15.7682 26.4975 13.3306 27.0856 10.0263H23.5571C22.7913 12.7076 20.5213 15.1452 18.3605 15.3755V10.0263H14.832V19.3975C12.6439 18.8558 9.88141 16.2286 9.75833 10.0263H6.01114Z" fill="white"/>
</g>
<defs>
<clipPath id="clip0_2740_3047">
<rect x="0.472656" y="0.140625" width="32.8222" height="32.5016" rx="2.94586" fill="white"/>
</clipPath>
</defs>
</svg>
